<svg width="48" height="52" viewBox="0 0 48 52" fill="none" xmlns="http://www.w3.org/2000/svg">
<g clip-path="url(#clip0_269_177)">
<path d="M3.07081 4.41961C4.17298 1.85096 6.69506 0.642187 9.48622 1.31457C11.8015 1.87816 13.7429 3.15039 15.5915 4.56466C15.7967 4.71576 16.0035 4.86686 16.2102 5.02702C17.3048 6.16629 17.9646 7.55033 18.4526 9.03864C18.5066 8.97087 18.5446 8.89184 18.5636 8.80746C19.1321 6.9263 20.102 5.34281 21.7682 4.19145C23.1024 3.24045 24.5199 2.4106 26.0036 1.71195C26.9249 1.46113 27.8279 1.15138 28.8039 1.1272C30.7057 1.07734 32.1347 1.89931 33.2293 3.39366C33.8583 4.27865 34.3094 5.27601 34.558 6.33098L34.5671 7.69085C34.5347 7.94541 34.4865 8.19772 34.4227 8.44634C34.0533 9.5977 33.4832 10.6176 32.4373 11.3066C32.3582 11.0271 32.6683 10.9772 32.7413 10.7914C32.8508 10.536 33.2475 10.3713 32.9982 9.99961C33.6975 8.86941 34.0624 7.67877 33.7766 6.32947C33.5516 5.29899 33.0165 4.64474 32.2472 4.57222C31.9052 4.20354 31.443 4.29571 31.0158 4.25189C30.7066 4.26747 30.3988 4.30381 30.0946 4.36068C28.9939 4.6387 27.8325 4.75504 26.8777 5.46067C25.7607 5.89569 24.7134 6.49021 23.7689 7.22548H23.7765C23.6913 7.23454 23.591 7.21339 23.5667 7.33729C23.5298 7.33592 23.4931 7.34209 23.4587 7.35542C21.9826 8.35417 20.7664 9.56445 20.2206 11.3172C19.9166 12.0817 19.7174 12.8901 19.3328 13.6259C19.1808 13.9281 19.3328 13.9644 19.5852 13.9674C20.397 13.981 21.2042 13.916 22.0175 13.8677C23.1716 13.789 24.3209 13.6519 25.4609 13.4567C27.0973 13.1946 28.6953 12.7343 30.2192 12.0863C30.8562 12.1482 31.3518 11.8007 31.8763 11.5287C32.0526 11.4365 32.1803 11.1903 32.4388 11.3096C32.3932 11.5348 32.1895 11.6118 32.0344 11.7342C30.8394 12.6312 29.4932 13.3097 28.059 13.7378C27.1347 14.0263 26.1906 14.2545 25.2556 14.5099C24.4256 14.4796 23.6275 14.8015 22.7959 14.735C22.3094 14.6957 22.1726 14.9269 22.2243 15.359C22.3915 16.737 22.3763 18.1256 22.4538 19.5081C22.4295 20.2999 22.6287 21.0901 22.5131 21.9574C21.3228 21.2729 20.1872 20.6338 19.0683 19.969C18.9367 19.8709 18.7767 19.8179 18.6122 19.8179C18.4477 19.8179 18.2877 19.8709 18.1561 19.969C17.6469 20.2984 17.1117 20.5885 16.5842 20.8892C15.856 21.3032 15.1248 21.7142 14.3236 22.1659V19.3812C14.3236 17.9931 14.3261 16.6041 14.3312 15.214C14.3312 14.9783 14.3783 14.7259 13.9983 14.7244C13.0998 14.7244 12.2242 14.5129 11.3394 14.3935C8.93893 13.8919 6.66162 13.0971 4.6701 11.6239C4.287 11.2311 3.86438 10.8775 3.51473 10.4484C2.13283 8.76062 1.90631 6.49417 2.95224 4.64021L3.04345 4.71122C3.07385 4.77317 2.99024 5.03155 3.15139 4.86232C3.97536 4.0056 5.04712 3.95574 6.12041 3.86508C6.36821 3.84393 6.64642 3.86508 6.89573 3.6611C5.64762 3.32113 4.03313 3.69434 3.16051 4.49365L3.07081 4.41961ZM14.3358 8.0958C13.8651 7.65598 13.3387 7.27909 12.7699 6.97466C12.3686 6.71628 11.9794 6.43977 11.5644 6.20557C9.93773 5.28539 8.2533 4.50573 6.36669 4.28362C5.77227 4.21412 5.16114 4.14612 4.63514 4.55862C4.09546 4.56919 3.75948 4.8865 3.50864 5.3141C2.484 7.0774 3.05257 9.31817 4.58497 10.6992C5.69322 11.6979 7.04928 12.2827 8.46006 12.7254C10.6796 13.4235 12.9676 13.7362 15.2844 13.8707C15.8925 14.324 16.9369 14.3708 17.5009 13.9659C17.7487 13.839 17.5861 13.6788 17.5192 13.5519C17.1376 12.8342 16.9628 12.0409 16.6617 11.2945C16.4246 10.7853 16.2391 10.2368 15.9381 9.77448C15.5565 9.17916 15.2418 8.47807 14.43 8.30733C14.4483 8.22272 14.4483 8.13508 14.3358 8.0958ZM25.1568 5.32166C23.0908 5.80819 21.5615 6.99883 20.5536 8.85581C21.6907 7.16353 23.3721 6.1814 25.1568 5.32166Z" fill="#FEE934"/>
<path d="M24.0014 51.3715C22.5648 50.6689 21.2148 49.8137 19.8253 49.0264C17.4735 47.6923 15.1323 46.3369 12.7866 44.9906C12.7866 40.2402 12.7907 35.4897 12.7988 30.7392C13.3415 31.0414 13.8873 31.3557 14.43 31.6669C16.9977 33.1416 19.5578 34.633 22.1391 36.085C22.7472 36.4235 23.2945 36.8707 23.9908 37.0339C23.9908 37.0686 23.9999 37.1034 24.0029 37.1381L24.0014 51.3715Z" fill="#CF2555"/>
<path d="M45.5434 24.8827C45.5525 25.4523 45.5677 26.0204 45.5692 26.5901C45.5692 30.5609 45.5692 34.5317 45.5799 38.5041C45.5799 38.8984 45.4765 39.1251 45.1238 39.3275C41.8178 41.1961 38.5184 43.0768 35.2255 44.9695V41.8796L35.2073 30.8495C35.2194 30.7755 35.2316 30.6984 35.2422 30.6274C35.3829 30.5849 35.5201 30.5319 35.6527 30.4687C37.9331 29.1633 40.2134 27.8472 42.5029 26.5402C43.5017 25.9736 44.4579 25.3133 45.5434 24.8827Z" fill="#A71E45"/>
<path d="M32.4373 11.3006C33.4832 10.6116 34.0533 9.59166 34.4227 8.4403C34.4865 8.19168 34.5347 7.93937 34.5671 7.68482C34.9396 7.55639 35.2117 7.2013 35.645 7.20886C39.5976 9.48438 43.5502 11.7609 47.5028 14.0384C47.67 14.1351 47.892 14.1729 47.9589 14.3965C45.2985 15.9211 42.6487 17.4623 39.9746 18.9627C38.8055 19.6169 37.6942 20.3618 36.4659 20.9269L36.3549 20.9013C36.2181 20.8091 36.0873 20.7078 35.9444 20.6263C32.38 18.5834 28.8145 16.5421 25.248 14.5023C26.183 14.247 27.1271 14.0188 28.0514 13.7302C29.4856 13.3021 30.8318 12.6237 32.0268 11.7267C32.1788 11.6088 32.3856 11.5272 32.4312 11.3021L32.4373 11.3006Z" fill="#E52A5E"/>
<path d="M36.4812 20.9224C37.6973 20.3634 38.8208 19.6185 39.9899 18.9582C42.664 17.4578 45.3107 15.9166 47.9741 14.392C47.9833 16.7778 47.9878 19.1652 48.0076 21.551C48.0076 21.8048 47.8753 21.9015 47.6914 22.0043C46.9906 22.4077 46.2943 22.8202 45.595 23.2282C43.5193 24.4098 41.4417 25.5903 39.362 26.7699C38.3906 27.3214 37.4115 27.8623 36.4355 28.4078C36.4355 28.1313 36.4553 27.8563 36.4553 27.5813C36.4634 25.3642 36.472 23.1446 36.4812 20.9224Z" fill="#A71E45"/>
<path d="M35.1995 30.8495L35.2177 41.8796V44.9695C33.3529 46.0705 31.4876 47.172 29.6217 48.274C29.569 48.2895 29.5137 48.2941 29.4591 48.2876L29.45 34.0482L29.5047 33.9485C30.2861 33.743 30.8911 33.2096 31.5844 32.8394C32.8021 32.1988 33.9423 31.4161 35.1995 30.8495Z" fill="#D09919"/>
<path d="M12.799 30.7392C12.799 35.4897 12.7949 40.2402 12.7868 44.9906C11.9431 44.6673 11.2149 44.1324 10.4396 43.6867C9.31003 43.0385 8.19873 42.3601 7.07983 41.6937C7.07983 38.6446 7.08389 35.5954 7.092 32.5463C7.092 30.8842 7.1072 29.2056 7.11481 27.5344C8.28083 28.1977 9.43925 28.8777 10.6114 29.5168C11.3167 29.8991 11.9537 30.4234 12.7397 30.6304L12.799 30.7392Z" fill="#F4C82C"/>
<path d="M29.4546 34.0482L29.4637 48.2876C27.7103 49.2949 25.9575 50.3022 24.2052 51.3095C24.1399 51.338 24.0716 51.3588 24.0015 51.3715C24.0015 46.627 24.0015 41.8826 24.0015 37.1382C24.2113 37.0248 24.4211 36.913 24.6293 36.7952L29.4546 34.0482Z" fill="#A71E45"/>
<path d="M7.11463 27.5344C7.10703 29.2056 7.09638 30.8767 7.09182 32.5463C7.08574 35.5955 7.08168 38.6446 7.07966 41.6937C5.62023 40.8657 4.16029 40.0377 2.69985 39.2097C2.61611 39.175 2.54519 39.1154 2.49676 39.0392C2.44834 38.9629 2.42476 38.8737 2.42925 38.7836C2.44243 34.15 2.45256 29.5163 2.45966 24.8827C3.3718 25.206 4.13192 25.7893 4.97565 26.2259C5.67344 26.584 6.27697 27.1174 7.05989 27.3123L7.11463 27.5344Z" fill="#D02754"/>
<path d="M2.41566 23.2372C1.71787 22.8277 1.02161 22.4137 0.319259 22.0103C0.13683 21.9045 -0.00150783 21.8124 1.2409e-05 21.557C0.0197755 19.1712 0.0258535 16.7854 0.0349749 14.4011C0.95776 14.9329 1.85926 15.498 2.80637 15.9876C3.81732 16.5104 4.7249 17.219 5.80579 17.6089V25.0972C5.60664 25.005 5.40294 24.9235 5.21291 24.8177C4.27796 24.2949 3.34757 23.7645 2.41566 23.2372Z" fill="#DA275A"/>
<path d="M5.80573 17.6104C4.72484 17.2205 3.81726 16.5119 2.8063 15.9891C1.86224 15.4995 0.957697 14.9314 0.0349121 14.4026C0.109404 14.182 0.328318 14.1442 0.490984 14.0475C1.88352 13.2356 3.27707 12.4297 4.67164 11.6299C6.66315 13.1031 8.94047 13.8964 11.3409 14.3996C11.2406 14.5975 11.0369 14.6443 10.859 14.7425C9.20904 15.7025 7.55604 16.661 5.89999 17.6179C5.86881 17.6131 5.83729 17.6106 5.80573 17.6104Z" fill="#E52B5E"/>
<path d="M26.0036 1.71197C24.5199 2.41063 23.1024 3.24047 21.7682 4.19147C20.0959 5.34283 19.1321 6.92633 18.5635 8.80748C18.5445 8.89186 18.5066 8.97089 18.4526 9.03866C17.9646 7.55036 17.3048 6.16782 16.2102 5.02704C18.6867 3.60371 21.1647 2.18642 23.6335 0.750996C23.7427 0.668162 23.8762 0.623291 24.0136 0.623291C24.1509 0.623291 24.2845 0.668162 24.3936 0.750996C24.9151 1.09096 25.4639 1.39467 26.0036 1.71197Z" fill="#E52B5E"/>
<path d="M36.4357 28.4214C37.4117 27.8759 38.3907 27.335 39.3621 26.7835C41.4398 25.6069 43.5174 24.4264 45.5951 23.2418C45.5738 23.7902 45.6513 24.3417 45.5495 24.8872C44.464 25.3178 43.5078 25.9781 42.5014 26.5493C40.221 27.8517 37.9407 29.1678 35.6512 30.4778C35.5186 30.5409 35.3814 30.594 35.2408 30.6364L35.1997 29.195C35.5554 28.8475 36.01 28.6525 36.4357 28.4214Z" fill="#8F1437"/>
<path d="M2.41562 23.2372C3.34752 23.7646 4.27791 24.2949 5.21286 24.8192C5.40289 24.925 5.6066 25.0066 5.80575 25.0988L7.02194 25.7681C7.05386 26.2834 7.15269 26.7956 7.06603 27.3138C6.28311 27.1189 5.67957 26.5855 4.98178 26.2274C4.13501 25.7938 3.37185 25.2076 2.46579 24.8842C2.36089 24.3418 2.43538 23.7857 2.41562 23.2372Z" fill="#C21B4A"/>
<path d="M35.6451 7.21039C35.2118 7.20284 34.9397 7.55792 34.5672 7.68635L34.5581 6.32648C34.961 6.57881 35.5037 6.6468 35.6451 7.21039Z" fill="#FED033"/>
<path d="M2.95679 4.64022L3.0708 4.41962L3.16506 4.49668L3.04801 4.71123L2.95679 4.64022Z" fill="#FEE934"/>
<path d="M14.3281 19.3812V22.1584C15.1293 21.7051 15.8605 21.2956 16.5887 20.8816C17.1163 20.5794 17.6529 20.2908 18.1607 19.9614C18.2922 19.8634 18.4523 19.8103 18.6167 19.8103C18.7812 19.8103 18.9412 19.8634 19.0728 19.9614C20.1917 20.6263 21.3273 21.2654 22.5177 21.9499C22.6332 21.0826 22.4341 20.2878 22.4584 19.5006C22.6727 19.6049 22.8947 19.697 23.0999 19.8149C24.7631 20.7653 26.4308 21.7096 28.0817 22.6857C28.9513 23.1964 29.8756 23.618 30.6768 24.2405C30.2815 24.6379 29.7646 24.8449 29.2842 25.1093C27.5329 26.1186 25.7725 27.1098 24.0151 28.1071C23.9103 28.0811 23.8084 28.0447 23.7111 27.9983C22.4493 27.2831 21.189 26.5644 19.9302 25.8421C17.1391 24.2375 14.3515 22.6293 11.5674 21.0176L11.5537 20.9043C12.4871 20.4132 13.3506 19.7952 14.3281 19.3812Z" fill="#E52B5E"/>
<path d="M30.6738 24.2299C29.8726 23.6074 28.9483 23.1859 28.0787 22.6752C26.4278 21.7051 24.7601 20.7608 23.0969 19.8043C22.8917 19.6865 22.6697 19.5943 22.4554 19.49C22.3733 18.1075 22.393 16.7189 22.2258 15.3409C22.1741 14.9088 22.311 14.6776 22.7974 14.7169C23.629 14.7834 24.4271 14.4615 25.2572 14.4918C28.8237 16.5326 32.3891 18.5739 35.9536 20.6157C36.0965 20.6973 36.2272 20.7985 36.364 20.8907C35.8259 21.3818 35.1478 21.6462 34.5398 22.0134C33.2947 22.7598 32.0374 23.4896 30.7848 24.2269C30.7479 24.2212 30.7103 24.2222 30.6738 24.2299Z" fill="#FED033"/>
<path d="M30.2208 12.0742C28.6969 12.7223 27.0989 13.1825 25.4625 13.4446C24.3225 13.6398 23.1732 13.777 22.0191 13.8556C21.2089 13.904 20.4016 13.969 19.5868 13.9554C19.3314 13.9554 19.1778 13.913 19.3344 13.6139C19.719 12.878 19.9151 12.0697 20.2222 11.3051C21.542 11.2253 22.8564 11.074 24.1596 10.8518C26.2545 10.4695 28.3145 9.94524 30.0612 8.6594C31.3154 7.73771 32.2564 6.58333 32.2199 4.90163L32.2488 4.56317C33.0196 4.6357 33.5532 5.28995 33.7782 6.32043C34.0701 7.66972 33.6991 8.86036 32.9998 9.99057C32.7763 10.5406 32.3324 10.8971 31.8748 11.2326C31.3732 11.6088 30.7727 11.8007 30.2208 12.0742Z" fill="#FEC533"/>
<path d="M16.6679 11.3051C16.9719 12.0515 17.1437 12.8448 17.5253 13.5625C17.5922 13.6894 17.7548 13.8496 17.507 13.9765C16.7682 13.9417 16.0218 14.0672 15.2905 13.8813C12.9737 13.7468 10.6857 13.428 8.46618 12.736C7.0554 12.2933 5.69934 11.7085 4.59109 10.7098C3.05869 9.32876 2.49013 7.08347 3.51477 5.3247C3.76561 4.89407 4.10158 4.57677 4.64126 4.56921C4.63611 5.19527 4.75676 5.81605 4.99615 6.39516C5.23553 6.97427 5.58882 7.50006 6.03532 7.94169C6.61877 8.50636 7.28514 8.97966 8.01163 9.34538C8.10123 9.40798 8.19466 9.465 8.29135 9.51612C10.9411 10.7597 13.7946 11.0815 16.6679 11.3051Z" fill="#FEC533"/>
<path d="M32.2245 4.90462C32.261 6.58632 31.3124 7.74071 30.0658 8.6624C28.319 9.94521 26.2652 10.4756 24.1642 10.8548C22.861 11.077 21.5466 11.2283 20.2268 11.3081C20.7726 9.55538 21.9888 8.34509 23.4649 7.34634C23.4993 7.33301 23.536 7.32684 23.5729 7.32821C23.6595 7.32821 23.7705 7.36145 23.7826 7.2164H23.775C24.1764 7.22698 24.4485 6.94443 24.751 6.76311C25.4655 6.33097 26.2713 6.03633 26.8794 5.4531C27.8341 4.74748 28.9955 4.63113 30.0962 4.35311C30.4005 4.29625 30.7083 4.2599 31.0175 4.24432C31.3721 4.54132 31.7823 4.76571 32.2245 4.90462Z" fill="#FED033"/>
<path d="M14.3282 19.3812C13.3507 19.7952 12.4872 20.4162 11.5537 20.9103C11.2847 20.8257 11.1053 20.5341 10.7799 20.5794H10.6674H10.6766C9.56935 19.6913 8.32833 18.982 6.9991 18.4777C7.03103 18.2933 6.88813 18.2238 6.77259 18.1362L6.67985 18.0334C6.35756 17.9926 6.13104 17.7811 5.88477 17.6013C7.53878 16.6413 9.19281 15.6809 10.8468 14.7199C11.0171 14.6217 11.2284 14.5688 11.3287 14.3769C12.2135 14.4963 13.0892 14.7048 13.9876 14.7078C14.3677 14.7078 14.3206 14.9616 14.3206 15.1973C14.3297 16.5975 14.3322 17.9921 14.3282 19.3812Z" fill="#FED033"/>
<path d="M8.01172 9.34236C9.04092 8.93137 9.93026 8.26353 10.9215 7.78304C11.4292 7.53675 11.8975 7.17865 12.4995 7.17865C13.1212 7.47329 13.6381 7.97493 14.342 8.10941C14.3025 8.21669 14.3542 8.28166 14.4423 8.33152C15.2541 8.50226 15.5688 9.20335 15.9504 9.79867C16.2545 10.2671 16.4369 10.8095 16.674 11.3187C13.8008 11.0951 10.9488 10.7732 8.29752 9.5267C8.19838 9.4714 8.10292 9.40982 8.01172 9.34236Z" fill="#FED033"/>
<path d="M25.157 5.32166C23.3722 6.1814 21.6908 7.16353 20.5537 8.85581C21.5616 6.99883 23.091 5.80819 25.157 5.32166Z" fill="#FEFEFE"/>
<path d="M3.0481 4.71123L3.16515 4.49668C4.03776 3.69738 5.65226 3.32417 6.90037 3.66413C6.65106 3.8666 6.37286 3.84696 6.12506 3.86812C5.05177 3.95877 3.98 4.00864 3.15603 4.86536C2.99488 5.03156 3.0785 4.77318 3.0481 4.71123Z" fill="#FEFEFE"/>
<path d="M30.2207 12.0742C30.7725 11.7932 31.373 11.6088 31.8778 11.2356C32.3338 10.8972 32.7793 10.5436 33.0027 9.99359C33.2521 10.3653 32.8507 10.53 32.7458 10.7853C32.6683 10.9712 32.3582 11.021 32.4418 11.3006C32.1803 11.1812 32.0556 11.4275 31.8793 11.5197C31.3533 11.7886 30.8562 12.1361 30.2207 12.0742Z" fill="#FEFEFE"/>
<path d="M26.8824 5.45465C26.2637 6.03788 25.464 6.33253 24.7541 6.76466C24.45 6.94749 24.1794 7.23004 23.7781 7.21795C24.7213 6.4836 25.767 5.88961 26.8824 5.45465Z" fill="#E52B5E"/>
<path d="M15.2905 13.8813C16.0218 14.0671 16.7682 13.9417 17.507 13.9765C16.943 14.3814 15.8925 14.3376 15.2905 13.8813Z" fill="#FEFEFE"/>
<path d="M14.342 8.10338C13.6382 7.9689 13.1258 7.46726 12.4995 7.17262L12.7762 6.98224C13.345 7.28667 13.8714 7.66357 14.342 8.10338Z" fill="#E52B5E"/>
<path d="M32.2245 4.90463C31.784 4.76564 31.3754 4.54178 31.022 4.24585C31.4492 4.28967 31.9113 4.1975 32.2534 4.56617C32.2412 4.6795 32.2321 4.79282 32.2245 4.90463Z" fill="#FEFEFE"/>
<path d="M14.4378 8.32551C14.3496 8.27564 14.2979 8.21067 14.3374 8.10339C14.4484 8.13512 14.4484 8.22276 14.4378 8.32551Z" fill="#E52B5E"/>
<path d="M23.7811 7.21338C23.7689 7.36448 23.6579 7.32066 23.5713 7.32519C23.5956 7.20129 23.6959 7.22244 23.7811 7.21338Z" fill="#E52B5E"/>
<path d="M12.7988 30.7392L12.7532 30.6304L12.8033 29.1965C14.0195 29.8809 15.2357 30.5563 16.4519 31.2529C18.9715 32.6944 21.4864 34.1409 23.9969 35.5924V37.0339C23.3006 36.8707 22.7472 36.4295 22.1452 36.085C19.5608 34.6329 17.0038 33.1416 14.4361 31.6669C13.8873 31.3556 13.3415 31.0489 12.7988 30.7392Z" fill="#C21B4A"/>
<path d="M23.991 37.0339C23.991 36.5534 23.991 36.0729 23.991 35.5924C23.9994 35.5591 24.0055 35.5253 24.0092 35.4912C24.1549 35.4834 24.2957 35.4364 24.4166 35.3552C26.0889 34.3983 27.7642 33.4468 29.4425 32.501C29.4927 32.9815 29.3908 33.4695 29.5033 33.9485L29.4486 34.0482L24.6249 36.7951C24.4166 36.913 24.2068 37.0248 23.997 37.1381C24.0001 37.1034 23.9955 37.0686 23.991 37.0339Z" fill="#8F1437"/>
<path d="M29.5093 33.9485C29.3968 33.4695 29.4987 32.9815 29.4485 32.501C29.7966 32.0688 30.3606 31.9616 30.7741 31.6201C31.6164 31.1351 32.4464 30.6228 33.3069 30.1741C33.9362 29.8462 34.4744 29.3446 35.1935 29.1859L35.2345 30.6274C35.2239 30.7014 35.2117 30.7785 35.1995 30.8495C33.9423 31.4161 32.8021 32.1927 31.589 32.8394C30.8958 33.2096 30.2907 33.743 29.5093 33.9485Z" fill="#C4850E"/>
<path d="M35.1935 29.1859C34.4744 29.3446 33.9363 29.8462 33.3069 30.1741C32.4449 30.6274 31.6164 31.135 30.7742 31.6201V24.2329C32.0268 23.4956 33.2841 22.7658 34.5292 22.0194C35.1372 21.6507 35.8214 21.3878 36.3534 20.8967L36.4644 20.9224C36.4583 23.1456 36.4518 25.3682 36.4447 27.5903C36.4447 27.8653 36.4325 28.1403 36.4249 28.4168C36.0099 28.6525 35.5553 28.8474 35.1935 29.1859Z" fill="#D09919"/>
<path d="M12.8034 29.1965L12.7532 30.6304C11.9597 30.4159 11.3227 29.8991 10.6249 29.5168C9.44671 28.8777 8.28829 28.1978 7.12835 27.5345L7.07362 27.3138C7.16028 26.7956 7.06147 26.2834 7.02954 25.7681L7.89911 26.2456C9.1153 26.9134 10.2661 27.7143 11.531 28.3066C11.8806 28.6964 12.4705 28.7644 12.8034 29.1965Z" fill="#E6B62B"/>
<path d="M11.5174 28.3065C10.2526 27.7142 9.10633 26.9134 7.88558 26.2456L7.016 25.7681L5.7998 25.0987V17.6104C5.83118 17.6081 5.86268 17.6081 5.89406 17.6104C6.14034 17.7902 6.36686 18.0017 6.68915 18.0425C6.68915 18.1014 6.70587 18.1498 6.78188 18.1452C6.76668 18.3175 6.87614 18.4097 7.0084 18.4867C7.07574 18.5713 7.15511 18.6456 7.24403 18.7073C8.3234 19.2498 9.34044 19.895 10.3742 20.5205C10.4711 20.5606 10.5737 20.5856 10.6783 20.5945H10.6691L10.6965 20.6701L10.7816 20.5991C11.107 20.5537 11.2863 20.8453 11.5554 20.93L11.5691 21.0433C11.56 21.282 11.5448 21.5208 11.5433 21.7595C11.5331 23.9343 11.5245 26.1166 11.5174 28.3065Z" fill="#F4C82C"/>
<path d="M11.5173 28.3066C11.5254 26.1167 11.5336 23.9278 11.5417 21.7399C11.5417 21.5012 11.5584 21.2624 11.5675 21.0237C14.3526 22.6263 17.1397 24.229 19.9288 25.8316C21.1876 26.5548 22.4478 27.2736 23.7096 27.9877C23.807 28.0342 23.9089 28.0706 24.0137 28.0965C24.0137 30.5624 24.0137 33.0273 24.0137 35.4912C24.01 35.5253 24.0039 35.5592 23.9955 35.5924C21.481 34.1449 18.966 32.6984 16.4505 31.2529C15.2343 30.5594 14.0181 29.881 12.8019 29.1965C12.4705 28.7644 11.8807 28.6964 11.5173 28.3066Z" fill="#DA275A"/>
<path d="M24.0151 35.4912C24.0151 33.0273 24.0151 30.5624 24.0151 28.0965C25.7725 27.0993 27.533 26.1081 29.2843 25.0987C29.7586 24.8268 30.2816 24.6273 30.6768 24.2299C30.7115 24.2239 30.747 24.2239 30.7817 24.2299V31.6171C30.3713 31.9585 29.8042 32.0703 29.4561 32.4979C27.7797 33.4478 26.1044 34.3993 24.4302 35.3522C24.3074 35.4357 24.1637 35.4838 24.0151 35.4912Z" fill="#A71E45"/>
<path d="M10.6767 20.5809C10.5721 20.572 10.4696 20.547 10.3726 20.5069C9.33888 19.8874 8.32184 19.2422 7.24247 18.6937C7.15355 18.632 7.07418 18.5577 7.00684 18.4731C8.33379 18.9801 9.57222 19.6914 10.6767 20.5809Z" fill="#FEFEFE"/>
<path d="M7.00674 18.4867C6.87448 18.4097 6.76502 18.3175 6.78022 18.1453C6.89576 18.2329 7.03866 18.2979 7.00674 18.4867Z" fill="#FEFEFE"/>
<path d="M6.7878 18.1468C6.71179 18.1468 6.69659 18.1029 6.69507 18.044L6.7878 18.1468Z" fill="#FEFEFE"/>
<path d="M10.78 20.5794L10.6948 20.6504L10.6675 20.5749L10.78 20.5794Z" fill="#FEFEFE"/>
</g>
<defs>
<clipPath id="clip0_269_177">
<rect width="48" height="50.7429" fill="white" transform="translate(0 0.628601)"/>
</clipPath>
</defs>
</svg>
