<svg width="38" height="39" viewBox="0 0 38 39" fill="none" xmlns="http://www.w3.org/2000/svg">
<g clip-path="url(#clip0_218_12)">
<path d="M11.956 39C12.5676 39 13.1791 39 13.7907 39C16.6238 39 19.4569 39.0028 22.2899 39C23.2284 39 23.9367 38.3564 23.9694 37.4512C24.0129 36.2704 23.9598 35.0937 23.701 33.9353C22.5555 28.8048 18.7431 25.0915 13.6668 24.3766C9.23191 23.7512 5.52848 25.3 2.66816 28.8299C0.73813 31.2112 -0.0641214 34.0192 0.00398136 37.107C0.0312225 38.362 0.626441 39 1.84684 39C5.21657 39 8.5863 39 11.956 39Z" fill="url(#paint0_linear_218_12)"/>
<path d="M12.0052 20.9404C15.9293 20.9474 19.1655 17.6483 19.1818 13.6259C19.1982 9.53912 15.9892 6.18547 12.0542 6.17568C8.03887 6.16589 4.81488 9.45658 4.80398 13.5769C4.79309 17.6343 8.02116 20.9348 12.0052 20.9404Z" fill="url(#paint1_linear_218_12)"/>
<path d="M38 29.9226C37.9605 29.9981 37.9156 30.0709 37.8815 30.1492C37.5982 30.7942 37.1201 31.165 36.4255 31.1664C32.9427 31.1748 29.4599 31.1734 25.9772 31.1636C25.8641 31.1636 25.6911 31.0558 25.6489 30.9523C24.0962 27.2545 21.5505 24.5402 18.0214 22.7941C17.9887 22.7774 17.9601 22.7522 17.907 22.7144C18.5417 21.7616 19.3167 20.9529 20.2061 20.2632C26.7236 15.211 36.2866 19.0376 37.7862 27.2951C37.8652 27.7344 37.9292 28.1751 38.0014 28.6158V29.924L38 29.9226Z" fill="url(#paint2_linear_218_12)"/>
<path d="M28.339 0C29.0881 0.222457 29.8713 0.365166 30.5809 0.681363C33.3636 1.92237 35.186 4.98221 34.7352 8.30927C34.2639 11.779 31.7482 14.3044 28.497 14.7046C24.1425 15.2418 20.3233 11.7147 20.4241 7.25015C20.5072 3.5831 23.1414 0.554045 26.6677 0.0685561C26.7522 0.0573632 26.8325 0.0237848 26.9156 0C27.3896 0 27.865 0 28.339 0Z" fill="url(#paint3_linear_218_12)"/>
<path d="M11.956 38.9999C8.5863 38.9999 5.21657 38.9999 1.84684 38.9999C0.627803 38.9999 0.0312225 38.362 0.00398136 37.107C-0.0641214 34.0191 0.73813 31.2111 2.66816 28.8285C5.52848 25.2985 9.23191 23.7497 13.6668 24.3751C18.7431 25.0915 22.5555 28.8033 23.701 33.9338C23.9598 35.0923 24.0116 36.2689 23.9694 37.4497C23.9367 38.355 23.2284 38.9971 22.2899 38.9985C19.4569 39.0027 16.6238 38.9985 13.7907 38.9985C13.1791 38.9985 12.5676 38.9985 11.956 38.9985V38.9999Z" fill="url(#paint4_linear_218_12)"/>
<path d="M12.0052 20.9404C8.0198 20.9334 4.79309 17.6343 4.80398 13.5769C4.81488 9.45797 8.03887 6.16728 12.0542 6.17568C15.9905 6.18547 19.1996 9.53912 19.1818 13.6259C19.1655 17.6483 15.9293 20.9474 12.0052 20.9404Z" fill="url(#paint5_linear_218_12)"/>
</g>
<defs>
<linearGradient id="paint0_linear_218_12" x1="11.9915" y1="24.2411" x2="11.9915" y2="39.0013" gradientUnits="userSpaceOnUse">
<stop stop-color="#547C21"/>
<stop offset="1" stop-color="#99E23C"/>
</linearGradient>
<linearGradient id="paint1_linear_218_12" x1="11.9929" y1="6.17566" x2="11.9929" y2="20.9404" gradientUnits="userSpaceOnUse">
<stop stop-color="#547C21"/>
<stop offset="1" stop-color="#99E23C"/>
</linearGradient>
<linearGradient id="paint2_linear_218_12" x1="27.9542" y1="17.9918" x2="27.9542" y2="31.1719" gradientUnits="userSpaceOnUse">
<stop stop-color="#547C21"/>
<stop offset="1" stop-color="#99E23C"/>
</linearGradient>
<linearGradient id="paint3_linear_218_12" x1="27.6129" y1="0" x2="27.6129" y2="14.7588" gradientUnits="userSpaceOnUse">
<stop stop-color="#547C21"/>
<stop offset="1" stop-color="#99E23C"/>
</linearGradient>
<linearGradient id="paint4_linear_218_12" x1="11.9913" y1="24.2396" x2="11.9913" y2="39.0004" gradientUnits="userSpaceOnUse">
<stop stop-color="#547C21"/>
<stop offset="1" stop-color="#99E23C"/>
</linearGradient>
<linearGradient id="paint5_linear_218_12" x1="11.9929" y1="6.17566" x2="11.9929" y2="20.9404" gradientUnits="userSpaceOnUse">
<stop stop-color="#547C21"/>
<stop offset="1" stop-color="#99E23C"/>
</linearGradient>
<clipPath id="clip0_218_12">
<rect width="38" height="39" fill="white"/>
</clipPath>
</defs>
</svg>
