<svg width="60" height="60" viewBox="0 0 60 60" fill="none" xmlns="http://www.w3.org/2000/svg">
<g clip-path="url(#clip0_268_69)">
<path d="M18.1423 58.7166C17.0079 58.7693 15.9988 58.3322 15.0039 57.888C13.3122 57.1117 11.7192 56.1381 10.2583 54.9877C9.25984 54.2205 8.79588 53.1162 8.49421 51.9347C8.41306 51.0674 8.3178 50.2001 8.25252 49.3329C8.02672 46.4853 7.81149 43.6376 7.59097 40.79C7.36399 37.8336 7.13524 34.8771 6.90473 31.9207C6.80946 30.6578 6.71361 29.3943 6.61717 28.1303C6.51661 26.7258 6.46545 25.3072 6.30315 23.9063C6.06323 21.8311 6.04383 19.8157 7.33341 18.0162L8.51891 16.7047C8.99875 16.4501 9.38686 16.0464 9.91258 15.8708C10.0061 15.9199 10.1419 15.9445 10.1895 16.0218C11.248 17.7774 12.9451 18.1952 14.8451 18.2795C16.3958 18.348 17.9464 18.4129 19.4989 18.3989C19.5638 18.3881 19.6304 18.3942 19.6923 18.4167C19.7541 18.4392 19.809 18.4772 19.8517 18.527C19.2131 18.9115 18.5498 19.2591 17.9394 19.684C16.1964 20.8989 15.2226 22.5404 15.2279 24.7033C15.2279 26.9733 15.3885 29.2381 15.4749 31.5063C15.5966 34.6893 15.7395 37.8704 15.8754 41.0516C15.9618 43.0355 16.0394 45.0176 16.14 46.9997C16.2811 49.7683 16.357 52.5404 16.4169 55.3125C16.4452 56.7433 16.7433 57.9951 18.1423 58.7166Z" fill="#FED375"/>
<path d="M51.5322 52.0365C51.0929 53.9466 49.8016 55.151 48.1909 56.1271C46.4638 57.1805 44.7544 58.2338 42.7362 58.6587C42.4589 58.7232 42.173 58.7428 41.8894 58.7166C43.1049 58.0741 43.5847 57.0067 43.6006 55.7005C43.6253 53.5622 43.7629 51.4291 43.8529 49.2925C43.9376 47.2665 44.0293 45.2405 44.114 43.2163C44.2034 41.0803 44.2922 38.9449 44.3804 36.81C44.465 34.7841 44.5779 32.7581 44.6379 30.7321C44.6979 28.6587 44.8743 26.5871 44.8143 24.5084C44.7882 23.7891 44.621 23.0818 44.3221 22.4263C43.8846 21.4221 43.1525 20.6408 42.4345 19.8455C42.8085 19.8455 43.1808 19.8455 43.553 19.8455C45.2889 19.8543 47.0195 19.7683 48.6196 19.0291C49.7451 18.5025 50.7365 17.7862 51.1441 16.5256L51.5181 16.7012L52.7177 18.0021C52.7776 18.118 52.8306 18.2374 52.8941 18.3532C53.6615 19.6052 53.9862 21.0766 53.8167 22.5334C53.605 24.4329 53.5327 26.3466 53.4004 28.2532C53.3063 29.4798 53.2122 30.7087 53.1181 31.94C53.0776 32.3069 53.0246 32.6738 52.9946 33.0425C52.7747 35.8409 52.5571 38.6394 52.3419 41.4379C52.0702 44.9678 51.8003 48.5007 51.5322 52.0365Z" fill="#FED375"/>
<path d="M38.4688 57.1682C36.4665 57.9722 34.466 58.7798 32.4602 59.5769C32.0579 59.7384 31.6592 59.928 31.2041 59.8946C31.406 59.5635 31.5008 59.1786 31.4758 58.7921C31.464 52.9482 31.464 47.1044 31.4758 41.2605C31.4758 41.2184 31.4917 41.1762 31.5005 41.1341L31.7316 41.106C32.1179 40.9621 32.5113 40.8321 32.8906 40.6706C35.7673 39.4569 38.6423 38.2403 41.5155 37.0207V53.0425C41.5155 53.8097 41.4925 54.5751 41.5155 55.3406C41.5296 55.8673 41.2403 56.1675 40.8098 56.336C40.0318 56.6415 39.2468 56.8996 38.4688 57.1682Z" fill="#F35170"/>
<path d="M28.2984 59.7718C26.5343 59.2591 24.883 58.4779 23.1736 57.8406C22.6073 57.6264 22.0833 57.2841 21.4535 57.2595C20.8396 56.789 20.1005 56.5572 19.4089 56.2535C18.8991 56.0253 18.5392 55.6865 18.5498 55.1369C18.5762 53.7447 18.3046 52.3613 18.4228 50.9674C18.5992 50.7356 18.5216 50.4617 18.5233 50.2089C18.5233 45.7789 18.5233 41.3495 18.5233 36.9207C19.573 37.3648 20.6244 37.7985 21.6705 38.2549C23.8816 39.21 26.0897 40.1685 28.2949 41.1306L28.2984 59.7718Z" fill="#F35170"/>
<path d="M38.4687 57.1682C39.2467 56.8943 40.0317 56.6415 40.7991 56.3361C41.2243 56.1605 41.5136 55.8638 41.5048 55.3406C41.4854 54.5752 41.5048 53.8097 41.5048 53.0443C41.5451 52.9925 41.5744 52.9332 41.5908 52.8697C41.6072 52.8063 41.6103 52.7402 41.6001 52.6756C41.6495 50.8439 41.6988 49.0128 41.7482 47.1823L42.0129 36.7837C42.1348 35.5629 42.1784 34.3356 42.1434 33.1092C42.2351 30.5302 42.341 27.953 42.4098 25.374C42.4637 24.4276 42.1904 23.4915 41.6353 22.7212L41.5171 22.5825C41.2344 22.0123 40.7645 21.5552 40.1852 21.2869C38.5075 20.309 36.8122 19.3557 35.0551 18.5306C34.3265 18.1794 33.6032 17.8283 32.8782 17.4772C33.5362 17.2279 34.2595 17.4772 34.914 17.2051H35.0392C35.5791 17.7739 36.3182 17.9249 37.0274 18.118C38.1882 18.434 39.3984 18.4287 40.5751 18.6447C41.122 19.1538 41.81 19.4575 42.4345 19.8332C43.1507 20.6285 43.8829 21.4133 44.3204 22.414C44.6209 23.075 44.7875 23.7885 44.8108 24.5137C44.8743 26.5924 44.6979 28.664 44.6344 30.7374C44.5744 32.7634 44.458 34.7894 44.3768 36.8153C44.2886 38.9502 44.1998 41.0856 44.1104 43.2216C44.0257 45.2458 43.934 47.2718 43.8493 49.2978C43.7594 51.4344 43.6218 53.5674 43.5971 55.7058C43.5812 57.012 43.1013 58.0794 41.8858 58.7219C40.381 59.0098 39.2996 58.3673 38.4687 57.1682Z" fill="#F2A150"/>
<path d="M18.423 50.9603C18.3048 52.3543 18.5765 53.7377 18.55 55.1299C18.5394 55.6794 18.9028 56.0183 19.4091 56.2465C20.1007 56.5573 20.8398 56.7732 21.4538 57.2525C20.824 58.3848 19.6596 58.8993 18.1425 58.7167C16.7435 57.9951 16.4454 56.7434 16.4136 55.3125C16.3537 52.5404 16.2778 49.7683 16.1367 46.9997C16.0361 45.0176 15.9603 43.0355 15.872 41.0516C15.7362 37.8705 15.5933 34.6893 15.4716 31.5063C15.3851 29.2381 15.2281 26.9733 15.2246 24.7033C15.2246 22.5404 16.1931 20.8989 17.9361 19.684C18.5465 19.2592 19.2098 18.9115 19.8484 18.5271C20.2012 18.3164 20.577 18.2848 20.9792 18.2549C22.1577 18.1636 23.3273 17.9986 24.3999 17.4491C24.6098 17.342 24.8674 17.2736 24.8638 16.9611L24.9997 16.9523C25.6101 17.177 26.2487 17.1998 26.8891 17.2279C26.6597 17.3543 26.4375 17.4912 26.2028 17.6071C23.92 18.729 21.6161 19.7999 19.455 21.164C18.9928 21.4993 18.5553 21.8557 18.3806 22.4316C17.7932 23.118 17.6415 23.9625 17.6291 24.8104C17.6132 26.0306 17.6962 27.2507 17.7385 28.4726L17.892 32.9846C17.8667 34.2526 17.9138 35.521 18.0331 36.7837C18.0194 36.8915 18.0117 36.9999 18.0102 37.1085C18.0896 39.5471 18.1866 41.9856 18.2536 44.4242C18.3207 46.6029 18.3683 48.7816 18.423 50.9603Z" fill="#F2A150"/>
<path d="M51.5322 52.0365C51.8027 48.5007 52.0726 44.9649 52.342 41.4291C52.5548 38.6306 52.7724 35.8322 52.9947 33.0337C53.0247 32.6651 53.0776 32.2981 53.1182 31.9312C53.5028 31.9312 53.8238 31.7311 54.1678 31.6029C54.9176 31.3238 55.6039 30.8778 56.4083 30.7391C56.4489 32.816 56.2037 34.8789 56.1066 36.9488C55.9743 39.828 55.7538 42.7019 55.6056 45.5794C55.4927 47.7528 54.7606 49.6173 53.0847 51.0745C52.6336 51.4908 52.1066 51.8174 51.5322 52.0365Z" fill="#F35270"/>
<path d="M7.33002 18.0179C6.04043 19.8174 6.05984 21.8329 6.29976 23.908C6.46206 25.3125 6.51322 26.717 6.61377 28.132C6.42854 28.0758 6.23978 28.0249 6.05631 27.9565C5.13719 27.6317 4.29217 27.1155 3.31837 26.9224C3.03082 26.6292 2.63918 26.5239 2.27224 26.3957C1.47485 26.1341 1.01617 25.5723 0.709213 24.835C0.371668 24.0063 0.166316 23.1302 0.100587 22.2384C-0.0758265 20.1492 -0.0652413 18.0618 0.486933 16.013C0.640413 15.8006 0.785073 15.6127 1.10791 15.6215C1.54488 15.6041 1.98122 15.669 2.39396 15.8128C3.70119 16.3606 5.02076 16.882 6.31916 17.4543C6.66493 17.6159 7.09891 17.6422 7.33002 18.0179Z" fill="#E83665"/>
<path d="M53.4002 28.2514C53.5326 26.3448 53.6049 24.4312 53.8166 22.5316C53.9861 21.0748 53.6613 19.6034 52.8939 18.3515C52.8269 18.2409 52.774 18.1215 52.7175 18.0003C53.8819 17.5105 55.0444 17.0119 56.214 16.5309C57.2866 16.0885 58.331 15.4407 59.5659 16.0341C59.8341 16.6468 59.8517 17.3069 59.9187 17.9512C60.0951 19.9596 60.0422 21.9575 59.5571 23.9291C59.2448 25.1984 58.675 26.2517 57.2778 26.6152C57.1579 26.6633 57.0447 26.7264 56.9409 26.803C55.7148 27.2015 54.5716 27.7616 53.4002 28.2514Z" fill="#E83665"/>
<path d="M6.90127 31.9207C7.13648 34.8771 7.36523 37.8336 7.58751 40.79C7.80803 43.6377 8.02326 46.4853 8.24907 49.3329C8.31787 50.2002 8.4096 51.0674 8.49075 51.9347C6.17797 50.8006 4.90426 48.8747 4.71197 46.3957C4.30269 41.1447 4.05395 35.8796 3.7417 30.6198L6.90127 31.9207Z" fill="#F35270"/>
<path d="M28.2986 59.7718V41.1236H28.565C28.5974 41.1366 28.6324 41.142 28.6673 41.1394C29.5811 41.6082 30.5267 41.3887 31.4687 41.264C31.4687 47.1091 31.4687 52.953 31.4687 58.7957C31.4938 59.1822 31.399 59.567 31.1971 59.8982L30.936 59.9157C30.6854 59.8077 30.4152 59.7519 30.1421 59.7519C29.869 59.7519 29.5988 59.8077 29.3482 59.9157L29.0836 59.8964C29.0466 59.8297 29.006 59.8244 28.9601 59.8964C28.7328 59.9076 28.5061 59.8648 28.2986 59.7718Z" fill="#F95E7E"/>
<path d="M9.54761 10.2722C9.87914 7.8737 10.6423 5.55434 11.8004 3.42524C12.4329 2.21767 13.3876 1.20689 14.5595 0.50389C16.0308 -0.373919 17.4421 0.0316323 18.7934 0.770747C20.307 1.61417 21.6932 2.66623 22.9109 3.89575C23.0873 4.07131 23.2391 4.3171 23.5319 4.35396C23.8248 4.96843 24.4052 5.32833 24.8391 5.81639L25.7988 7.09448C25.5448 7.5527 25.4319 8.06182 25.2696 8.55164C24.8779 8.37608 24.7492 7.90557 24.3416 7.75108C24.0135 7.02952 23.3537 6.59764 22.8157 6.06744C21.3779 4.65066 19.8166 3.38837 17.9519 2.54217C16.9252 2.07693 15.902 1.96106 14.8453 2.43332C12.8554 3.32693 11.7757 5.02285 10.8848 6.88205C10.2691 8.16541 9.93748 9.54006 9.57583 10.9042L9.54761 10.2722Z" fill="#FEDD9B"/>
<path d="M36.3482 4.35395C37.936 3.01968 39.5378 1.70999 41.3019 0.582881C42.8773 -0.423088 45.0737 0.0298606 46.2891 1.1359C48.3744 3.03372 49.3817 5.48984 50.0644 8.12326C50.2549 8.85711 50.3449 9.61729 50.4807 10.3652C50.4719 10.5407 50.4649 10.7163 50.456 10.8919C50.3731 10.625 50.2796 10.3652 50.2091 10.0913C49.5457 7.56849 48.6213 5.17558 46.642 3.35325C45.3277 2.1366 43.4665 1.48176 41.6001 2.56673C39.3545 3.84455 37.3552 5.50964 35.6955 7.48421C35.3427 7.66855 35.1575 8.0109 34.8964 8.27775C34.7199 7.81076 34.7199 7.22439 34.0725 7.08042C34.2966 6.57656 34.7517 6.24299 35.0428 5.78829L36.3482 4.35395Z" fill="#FEDD9B"/>
<path d="M50.4561 10.8989C50.4649 10.7233 50.4719 10.5478 50.4807 10.3722C52.8376 11.3588 55.1592 12.4386 57.562 13.2953C58.9733 13.7992 59.3155 14.8297 59.5608 16.0463C58.3259 15.4529 57.2833 16.1008 56.2089 16.5432C55.0393 17.0242 53.8767 17.5228 52.7124 18.0126L51.5128 16.7117C52.7582 16.185 54.0002 15.6584 55.251 15.1317C55.5403 15.0123 55.7432 14.8718 55.7573 14.533C55.7714 14.1643 55.5068 14.0625 55.2386 13.9537C54.7729 13.764 54.3177 13.5516 53.845 13.3866C52.7141 12.9916 51.6662 12.3894 50.4931 12.0997L50.4561 10.8989Z" fill="#F95E7E"/>
<path d="M9.54746 10.2721C9.55805 10.481 9.56687 10.6899 9.57569 10.8971L9.55981 11.9505L9.51747 12.0997C9.34107 12.0883 9.16529 12.1299 9.01293 12.2191C7.61574 12.7949 6.21678 13.3678 4.81605 13.9378C4.55143 14.0467 4.26917 14.1292 4.2727 14.5014C4.27623 14.8736 4.50909 15.0088 4.82311 15.1369C6.058 15.6425 7.2929 16.1745 8.51721 16.6977L7.32995 18.0179C7.09885 17.6439 6.66487 17.6176 6.3191 17.4649C5.02069 16.8925 3.70112 16.3711 2.39389 15.8234C1.98116 15.6795 1.54481 15.6146 1.10784 15.632C0.785004 15.632 0.640344 15.8076 0.486864 16.0235C0.294574 15.632 0.530968 14.7103 0.922606 14.2784C1.35702 13.8194 1.89186 13.4662 2.48563 13.2461C4.84781 12.2753 7.19587 11.2658 9.54746 10.2721Z" fill="#F95E7E"/>
<path d="M36.3483 4.35394L35.0375 5.79355C33.9791 5.17382 32.7653 4.9017 31.6857 4.34165C30.509 3.7307 29.3764 3.71314 28.1874 4.34165C27.113 4.91047 25.894 5.18962 24.8355 5.80935C24.4016 5.32129 23.8212 4.96139 23.5283 4.34692C25.116 3.67101 26.7038 2.98456 28.3003 2.32269C28.8295 2.1066 29.397 1.99881 29.9689 2.00575C30.5408 2.01268 31.1055 2.13421 31.6292 2.36307C33.2258 2.9986 34.7782 3.68681 36.3483 4.35394Z" fill="#F95E7E"/>
<path d="M53.4004 28.2514C54.5718 27.7616 55.7149 27.198 56.9286 26.8083C56.8493 27.9354 56.7522 29.059 56.6975 30.1861C56.6889 30.2926 56.659 30.3964 56.6096 30.4914C56.5602 30.5863 56.4924 30.6705 56.41 30.7391C55.6055 30.8778 54.9193 31.3237 54.1695 31.6029C53.8167 31.731 53.5045 31.9329 53.1199 31.9312C53.214 30.7046 53.3075 29.478 53.4004 28.2514Z" fill="#CB104A"/>
<path d="M6.90132 31.9206L3.74175 30.6197C3.53005 30.5144 3.51594 30.3213 3.50536 30.1194C3.44302 29.0543 3.38069 27.9892 3.31836 26.9241C4.28863 27.1173 5.13718 27.6264 6.0563 27.9582C6.23271 28.0231 6.42853 28.0741 6.61376 28.1338C6.71373 29.3955 6.80958 30.6577 6.90132 31.9206Z" fill="#CB104A"/>
<path d="M29.3447 59.9157C29.5953 59.8077 29.8655 59.752 30.1386 59.752C30.4117 59.752 30.6819 59.8077 30.9324 59.9157C30.409 60.0258 29.8682 60.0258 29.3447 59.9157Z" fill="#F35170"/>
<path d="M28.9636 59.8894C29.0095 59.8245 29.0501 59.8297 29.0871 59.8894H29.0254H28.9636Z" fill="#F35170"/>
<path d="M9.51754 12.1067L9.55988 11.9575C9.84037 11.3483 9.96739 10.6829 10.2938 10.0842C11.2093 8.39885 12.9841 7.74752 13.9984 7.92132C16.4153 8.33389 18.6346 9.30826 20.7957 10.4389C21.7483 10.9375 22.6304 11.5414 23.5459 12.0927C23.5459 12.1366 23.5459 12.1805 23.5459 12.2243C23.5918 12.5052 23.4542 12.751 23.4119 13.0214C21.1021 11.2722 18.5059 9.93339 15.7379 9.06423C14.5347 8.68853 13.3316 8.3971 12.139 9.19064C10.2267 10.4635 9.63573 13.8588 11.0047 15.9164C11.578 17.1014 12.7053 17.3209 13.8361 17.4824C15.6885 17.7545 17.5567 17.5913 19.4161 17.6088C20.4191 17.5905 21.4186 17.4842 22.4028 17.2911C23.1225 17.1699 23.7594 16.81 24.4721 16.6941C24.608 16.7802 24.6591 16.9821 24.8637 16.9698C24.8637 17.2805 24.6097 17.3507 24.3998 17.4578C23.3272 18.0073 22.1576 18.1724 20.9791 18.2637C20.5769 18.2935 20.1958 18.3251 19.8483 18.5358C19.8056 18.4859 19.7507 18.4479 19.6889 18.4254C19.627 18.403 19.5604 18.3968 19.4955 18.4076C17.943 18.4217 16.3924 18.3567 14.8417 18.2882C12.9417 18.204 11.2482 17.7914 10.1861 16.0305C10.1385 15.9533 10.0097 15.9287 9.90917 15.8795C9.73276 14.6208 9.46461 13.3795 9.51754 12.1067Z" fill="#FEB860"/>
<path d="M9.51751 12.1067C9.46459 13.3795 9.73274 14.6208 9.90915 15.8708C9.37991 16.0463 8.99533 16.4501 8.51548 16.7047C7.28059 16.178 6.05981 15.6513 4.82315 15.1439C4.50913 15.0158 4.27627 14.8841 4.27274 14.5084C4.26921 14.1327 4.55147 14.0537 4.81609 13.9448C6.21682 13.3725 7.61577 12.7996 9.01297 12.2261C9.16533 12.1369 9.34111 12.0953 9.51751 12.1067Z" fill="#E83665"/>
<path d="M50.4983 12.098C51.6679 12.3876 52.7158 12.9898 53.8501 13.3848C54.3229 13.5499 54.778 13.7623 55.2438 13.9519C55.5119 14.0607 55.773 14.1626 55.7624 14.5313C55.7483 14.8701 55.5454 15.0105 55.2561 15.1299C54.0054 15.6443 52.7634 16.1833 51.5179 16.71L51.1439 16.5344C50.874 16.1692 50.4489 16.0077 50.0854 15.776C50.4323 14.6704 50.5588 13.5081 50.4577 12.3543L50.4983 12.098Z" fill="#E83665"/>
<path d="M50.0839 15.7654C50.4455 16.0042 50.8707 16.1587 51.1424 16.5239C50.7278 17.7844 49.7434 18.506 48.6179 19.0274C47.0178 19.7665 45.2872 19.8525 43.5513 19.8437C43.1791 19.8437 42.8068 19.8437 42.4328 19.8437C41.8013 19.468 41.1221 19.1643 40.5752 18.6552C41.018 18.3041 41.4573 18.6657 41.8965 18.6727C43.1842 18.7025 44.4724 18.6485 45.7529 18.5112C47.6141 18.2935 49.3024 17.7142 50.0839 15.7654Z" fill="#EDAD55"/>
<path d="M41.517 37.026C38.6439 38.2444 35.7689 39.461 32.8922 40.6759C32.5129 40.8374 32.1195 40.9674 31.7332 41.1131C31.7332 39.8923 31.7332 38.6722 31.7332 37.4526L41.6335 33.2391C41.6335 34.4646 41.6335 35.69 41.6335 36.9154L41.517 37.026Z" fill="#CB104A"/>
<path d="M31.7281 37.4526C31.7281 38.6734 31.7281 39.8935 31.7281 41.1131L31.497 41.1394C30.562 41.2883 29.6093 41.2883 28.6743 41.1394C28.6395 41.142 28.6045 41.1366 28.572 41.1236C28.572 39.9017 28.572 38.6786 28.572 37.4544C29.5423 37.8371 30.5126 38.0355 31.4758 37.4421L31.7281 37.4526Z" fill="#B00C42"/>
<path d="M41.5173 37.026L41.6443 36.9172L42.02 36.789L41.7554 47.1875C41.7072 49.0192 41.6578 50.8503 41.6072 52.6809C41.6175 52.7455 41.6143 52.8116 41.598 52.875C41.5816 52.9384 41.5523 52.9978 41.512 53.0495L41.5173 37.026Z" fill="#BF224F"/>
<path d="M28.6672 41.1412C29.6022 41.29 30.5549 41.29 31.4899 41.1412C31.481 41.1833 31.4722 41.2254 31.4652 41.2676C30.5266 41.3905 29.5811 41.6099 28.6672 41.1412Z" fill="#CB104A"/>
<path d="M28.5612 37.4561C28.5612 38.6792 28.5612 39.9023 28.5612 41.1253H28.2949C26.0885 40.1668 23.8804 39.2082 21.6705 38.2496C20.6244 37.7967 19.573 37.3595 18.5233 36.9154L18.3945 36.7907L18.4104 33.2286C18.7793 33.2906 19.1364 33.4091 19.4689 33.5797C22.4891 34.832 25.5111 36.082 28.5348 37.3297C28.5473 37.371 28.5562 37.4133 28.5612 37.4561Z" fill="#CB104A"/>
<path d="M18.407 36.7872L18.5358 36.9136C18.5358 41.3436 18.5358 45.773 18.5358 50.2019C18.5358 50.4547 18.6205 50.7286 18.4352 50.9603C18.3806 48.7816 18.3329 46.6029 18.2588 44.4241C18.1865 41.9856 18.0948 39.547 18.0154 37.1085C18.0169 36.9999 18.0246 36.8914 18.0383 36.7837L18.407 36.7872Z" fill="#BF224F"/>
<path d="M19.4548 21.1639C21.6106 19.7998 23.9199 18.7289 26.2027 17.6071C26.4373 17.4912 26.6596 17.3543 26.8889 17.2279C27.5081 17.1541 28.0409 16.8627 28.5666 16.5555C29.401 16.5976 30.2478 16.429 31.0699 16.6941C31.6316 17.0402 32.2382 17.3084 32.8728 17.4912C33.5979 17.8423 34.3212 18.1934 35.0498 18.5446C36.8139 19.3767 38.5022 20.323 40.1799 21.3009C40.0758 21.638 39.5642 21.5449 39.5113 21.9329L38.7298 21.9241C38.7139 21.7398 38.5534 21.6836 38.4299 21.6081C35.8419 20.165 33.1375 18.9554 30.4189 17.8037C30.284 17.7404 30.1357 17.71 29.9866 17.7152C29.8375 17.7204 29.6918 17.761 29.5616 17.8335C28.429 18.3602 27.2682 18.8255 26.1444 19.3644C24.5073 20.1439 22.8261 20.8409 21.3001 21.8381L20.6527 21.9276C20.3739 21.4817 19.7741 21.5449 19.4548 21.1639Z" fill="#CB104A"/>
<path d="M50.0839 15.7655C49.3024 17.7142 47.6141 18.2936 45.7512 18.513C44.4706 18.6503 43.1824 18.7043 41.8948 18.6745C41.4555 18.6745 41.0127 18.3094 40.5735 18.657C39.3968 18.4428 38.1866 18.4481 37.0258 18.1303C36.3201 17.9372 35.5774 17.7792 35.0376 17.2174C35.4028 17.2174 35.7433 17.1735 35.9567 16.8206C37.3151 17.2921 38.7384 17.5521 40.1765 17.5913C41.7925 17.6598 43.4172 17.6598 45.035 17.5913C46.2028 17.5422 47.3954 17.4403 48.3868 16.6802C48.6479 16.4783 48.9319 16.2974 48.8896 15.9042C49.0295 15.8362 49.1371 15.7165 49.1895 15.5706C49.904 13.8992 49.9851 12.2033 49.1542 10.5724C48.438 9.16786 46.9332 8.37783 45.3701 8.77811C43.973 9.14606 42.6098 9.63118 41.295 10.2283C39.6261 10.9744 38.1001 11.9593 36.6218 13.0214C36.3378 12.8231 36.6218 12.4333 36.3572 12.2297V12.0962C36.5989 12.1226 36.7559 11.9786 36.9411 11.8504C39.4532 10.1212 42.1577 8.7904 45.169 8.20227C46.822 7.87924 48.2792 8.31989 49.3712 9.72614C49.9834 10.5127 50.2392 11.4115 50.4597 12.3438C50.5596 13.4978 50.432 14.6602 50.0839 15.7655Z" fill="#FEB860"/>
<path d="M41.6336 22.7265C42.1887 23.4967 42.462 24.4329 42.4081 25.3792C42.3393 27.9582 42.2317 30.5355 42.1417 33.1145H41.6424C41.6424 30.8708 41.6124 28.6271 41.6424 26.3852C41.6565 25.2002 41.6071 24.045 40.9756 22.9951L41.1326 22.8634L41.4854 22.7353L41.6336 22.7265Z" fill="#BF224F"/>
<path d="M32.8729 17.4912C32.2371 17.3092 31.6293 17.0417 31.0664 16.6959C31.2075 16.3834 31.4933 16.4378 31.7491 16.4361C32.5779 16.4157 33.4037 16.3299 34.2189 16.1797C34.2842 16.6327 34.6705 16.882 34.9069 17.2191C34.2577 17.4912 33.5344 17.2401 32.8729 17.4912Z" fill="#DD8536"/>
<path d="M41.6425 33.1162H42.1417C42.1768 34.3426 42.1331 35.5699 42.0112 36.7907L41.6354 36.9189C41.6354 35.6935 41.6354 34.468 41.6354 33.2426C41.6319 33.1987 41.6372 33.1583 41.6425 33.1162Z" fill="#B00C42"/>
<path d="M41.4907 22.7387L41.1379 22.8669C40.5452 22.6439 40.0442 22.2647 39.522 21.9241C39.5749 21.5361 40.0865 21.6292 40.1906 21.2921C40.7671 21.5601 41.2349 22.0151 41.5172 22.5825C41.5066 22.6387 41.4996 22.6878 41.4907 22.7387Z" fill="#E83565"/>
<path d="M34.9121 17.2173C34.6757 16.875 34.2894 16.6309 34.2241 16.178L35.2826 16.1587L35.4255 16.5537L35.2985 16.6871L35.2438 16.7486L35.3038 16.6924L35.4378 16.566L35.6936 16.5572C35.7545 16.5802 35.8099 16.6157 35.8561 16.6614C35.9023 16.707 35.9383 16.7619 35.9618 16.8223C35.7519 17.1734 35.4079 17.2226 35.0427 17.2191H34.9174L34.9121 17.2173Z" fill="#EDAD55"/>
<path d="M41.4907 22.7388C41.4907 22.6878 41.5066 22.6387 41.5154 22.5878L41.6336 22.7265L41.4907 22.7388Z" fill="#F95E7E"/>
<path d="M19.4549 21.164C19.7742 21.545 20.374 21.4818 20.6563 21.9189C20.2505 22.27 19.7301 22.4649 19.3438 22.888C19.4461 22.9442 19.499 22.9776 19.5572 23.0021C22.027 24.0555 24.4968 25.1089 26.9878 26.1412C28.0674 26.5853 28.5367 27.4158 28.5473 28.4902C28.5737 31.4379 28.5473 34.3856 28.5349 37.3332C25.5112 36.0797 22.488 34.8262 19.4655 33.5727C19.1329 33.4021 18.7759 33.2837 18.407 33.2216L18.3805 32.9811C18.3805 30.5513 18.3964 28.1233 18.3805 25.6935C18.3805 24.8157 18.4723 23.9502 18.901 23.1601C19.0262 22.9266 19.0597 22.7616 18.7246 22.6861C18.6476 22.6741 18.5745 22.6443 18.5111 22.5992C18.4477 22.5541 18.3957 22.4949 18.3594 22.4263C18.5552 21.8557 18.9927 21.4993 19.4549 21.164Z" fill="#E83565"/>
<path d="M24.8636 16.9645C24.659 16.9768 24.6078 16.7749 24.472 16.6889C24.3116 16.4851 24.1346 16.2949 23.9427 16.1201C21.6299 14.382 19.0949 13.0583 16.297 12.3122C14.1976 11.7521 12.8428 11.9839 11.6149 14.0678C11.2762 14.6419 11.2445 15.2967 11.0116 15.9059C9.64265 13.8483 10.2336 10.453 12.146 9.18014C13.3385 8.3866 14.5416 8.67803 15.7448 9.05374C18.514 9.92539 21.1109 11.2671 23.4205 13.0197C23.5929 13.2814 23.8212 13.502 24.0891 13.6657C24.0803 14.0081 24.1438 14.368 24.045 14.6875C23.8475 15.3248 24.1086 15.7145 24.6096 16.0323C24.5161 16.4344 24.823 16.6678 25.0047 16.9523L24.8636 16.9645Z" fill="#DD8536"/>
<path d="M18.3805 22.4315C18.4169 22.5001 18.4688 22.5593 18.5322 22.6044C18.5956 22.6495 18.6687 22.6793 18.7457 22.6913C19.0738 22.7668 19.0403 22.9319 18.9221 23.1654C18.4934 23.9554 18.3929 24.8139 18.4017 25.6987C18.4017 28.1285 18.4017 30.5565 18.4017 32.9863H17.906L17.7525 28.4744C17.7101 27.2454 17.6272 26.0323 17.6431 24.8121C17.6413 23.9624 17.7931 23.118 18.3805 22.4315Z" fill="#BF224F"/>
<path d="M28.5666 16.5555C28.0374 16.8627 27.5081 17.1542 26.8889 17.2279C26.2485 17.1998 25.6099 17.177 24.9995 16.9523C25.407 16.9172 25.5111 16.5818 25.6611 16.2904C26.6359 16.2857 27.6089 16.3744 28.5666 16.5555Z" fill="#DD8536"/>
<path d="M17.892 32.9846H18.3877L18.4142 33.2251L18.4071 36.789H18.0419C17.9195 35.5247 17.8694 34.2545 17.892 32.9846Z" fill="#B00C42"/>
<path d="M23.5459 12.0927C22.6303 11.5414 21.7482 10.9375 20.7956 10.4389C18.6345 9.30829 16.4152 8.33217 13.9984 7.92136C12.984 7.74579 11.2093 8.39889 10.2937 10.0843C9.96733 10.6829 9.84031 11.3483 9.55981 11.9575L9.57569 10.9042C9.93734 9.54004 10.269 8.16539 10.8847 6.88203C11.7667 5.02283 12.8552 3.32691 14.8452 2.4333C15.9036 1.96104 16.9251 2.08217 17.9518 2.54215C19.8147 3.38835 21.3778 4.64888 22.8155 6.06742C23.3536 6.59411 24.0134 7.0295 24.3415 7.75106C24.2974 8.02669 24.2568 8.30233 24.2057 8.5762C23.9857 9.74779 23.7658 10.92 23.5459 12.0927Z" fill="#FED375"/>
<path d="M34.0671 7.08565C34.7181 7.22785 34.7163 7.81598 34.891 8.28298C34.9157 8.56036 34.9245 8.836 34.9668 9.11514C35.1433 10.3213 35.5296 11.5045 35.4255 12.7458C35.1062 12.737 34.9898 13.0969 34.6881 13.1373C33.4762 13.2724 32.2748 13.4972 31.0505 13.5393C29.4331 13.5768 27.8152 13.4894 26.2114 13.2777C24.7472 13.1022 24.4473 12.7019 24.719 11.2658C24.8178 10.7549 24.906 10.2422 24.9995 9.73136C25.1624 9.3533 25.2539 8.94861 25.2694 8.53754C25.4335 8.04773 25.5464 7.5386 25.7986 7.08038C26.1656 7.13832 26.536 7.18221 26.8995 7.25595C29.269 7.75941 31.7244 7.70108 34.0671 7.08565Z" fill="#FED375"/>
<path d="M34.0672 7.08567C31.7255 7.70256 29.2708 7.7627 26.9013 7.26123C26.5379 7.18574 26.1675 7.14185 25.8005 7.08567L24.8408 5.80758C25.8993 5.18785 27.1113 4.9087 28.1927 4.33988C29.3817 3.71137 30.5143 3.72893 31.691 4.33988C32.7724 4.89993 33.9843 5.17205 35.0428 5.79178C34.7464 6.25526 34.2842 6.58181 34.0672 7.08567Z" fill="#E83665"/>
<path d="M25.2694 8.53754C25.2526 8.94504 25.1611 9.34605 24.9995 9.72083C24.719 9.87006 24.6714 10.1439 24.5902 10.4231C24.3803 11.1411 24.5091 11.9171 24.2092 12.6176C23.9657 12.5245 23.8563 12.2103 23.5476 12.2226C23.5476 12.1787 23.5476 12.1348 23.5476 12.0909C23.7687 10.9205 23.9886 9.746 24.2074 8.56739C24.2586 8.29351 24.2991 8.01788 24.3432 7.74225C24.7578 7.8985 24.8778 8.37252 25.2694 8.53754Z" fill="#E8C26F"/>
<path d="M50.456 12.3437C50.2355 11.4115 49.9797 10.5126 49.3675 9.72612C48.2755 8.32163 46.8183 7.87921 45.1654 8.20224C42.154 8.79038 39.4496 10.1211 36.9374 11.8504C36.7522 11.9786 36.5952 12.1225 36.3535 12.0962C36.3446 11.8159 36.3198 11.5363 36.2794 11.2588C36.0607 10.0053 35.759 8.7658 35.6902 7.48946C37.3516 5.51503 39.3527 3.85052 41.6 2.57373C43.4612 1.48876 45.3277 2.14361 46.6419 3.36025C48.6142 5.18785 49.5457 7.57374 50.209 10.0983C50.2813 10.3687 50.3731 10.625 50.456 10.8989L50.4983 12.098L50.456 12.3437Z" fill="#FED375"/>
<path d="M35.6955 7.48419C35.7643 8.76053 36.066 9.99999 36.2847 11.2535C36.3252 11.531 36.3499 11.8106 36.3588 12.0909C36.3588 12.1348 36.3588 12.1787 36.3588 12.2244C36.1965 12.5913 35.7608 12.6826 35.5597 13.0109C35.5144 12.9826 35.4781 12.9423 35.4547 12.8945C35.4313 12.8467 35.4218 12.7934 35.4274 12.7405C35.5314 11.4993 35.1521 10.316 34.9687 9.1099C34.9263 8.83075 34.9175 8.55512 34.8928 8.27773C35.1522 8.01088 35.3427 7.6738 35.6955 7.48419Z" fill="#E8C26F"/>
<path d="M10.9976 15.9112C11.2304 15.309 11.2622 14.6471 11.6009 14.073C12.8358 11.9839 14.1836 11.7521 16.2829 12.3174C19.0808 13.0636 21.6159 14.3873 23.9287 16.1254C24.1205 16.3001 24.2975 16.4904 24.4579 16.6942C23.7523 16.81 23.1083 17.1699 22.3886 17.2911C21.4044 17.4842 20.4049 17.5906 19.4019 17.6089C17.5425 17.5913 15.6743 17.7546 13.8219 17.4825C12.7052 17.3157 11.578 17.0927 10.9976 15.9112Z" fill="#F2A150"/>
<path d="M23.5477 12.2243C23.8546 12.2121 23.9658 12.5263 24.2092 12.6194C24.151 12.9705 24.3345 13.3427 24.0822 13.6727C23.8143 13.509 23.586 13.2884 23.4136 13.0267C23.4559 12.751 23.5935 12.5052 23.5477 12.2243Z" fill="#EDAD55"/>
<path d="M41.6424 33.1162C41.6424 33.1566 41.6318 33.197 41.6283 33.2391L31.7279 37.4526L31.4651 37.4438C31.4651 34.5611 31.4651 31.679 31.4651 28.7974C31.4651 27.5966 32.0596 26.7258 33.171 26.264C33.8361 25.9867 34.4994 25.7022 35.1645 25.4231L40.9685 22.9986C41.6 24.052 41.6494 25.2037 41.6353 26.3887C41.6124 28.6306 41.6389 30.8743 41.6424 33.1162Z" fill="#E83565"/>
<path d="M40.9738 22.9986L35.1662 25.4231C34.5011 25.7022 33.8378 25.9867 33.1728 26.264C32.0613 26.7258 31.4686 27.5966 31.4668 28.7974C31.4668 31.6789 31.4668 34.5611 31.4668 37.4438C30.5018 38.0372 29.5263 37.8388 28.5631 37.4561C28.5578 37.4145 28.549 37.3733 28.5366 37.3332C28.5366 34.3855 28.5754 31.4378 28.5489 28.4902C28.5384 27.4157 28.0691 26.5853 26.9895 26.1411C24.5038 25.1159 22.034 24.052 19.5589 23.0021C19.5007 22.9775 19.4478 22.9442 19.3455 22.888C19.7318 22.4649 20.2522 22.2647 20.658 21.9189L21.3054 21.8293C21.37 21.887 21.441 21.9371 21.5171 21.9786C24.1862 23.0916 26.8519 24.2152 29.5351 25.2932C29.7746 25.3766 30.0285 25.4114 30.2818 25.3958C30.5351 25.3801 30.7826 25.3142 31.0099 25.2019C32.2572 24.6629 33.5238 24.1713 34.7693 23.6306C36.0906 23.0548 37.4631 22.6018 38.7351 21.9154L39.5166 21.9242C40.0458 22.2647 40.5398 22.644 41.1325 22.8669L40.9738 22.9986Z" fill="#F95E7E"/>
<path d="M38.7334 21.9154C37.4614 22.6018 36.0872 23.0548 34.7676 23.6306C33.5221 24.1713 32.2555 24.6629 31.0082 25.2019C30.7809 25.3142 30.5333 25.3801 30.2801 25.3958C30.0268 25.4114 29.7729 25.3766 29.5334 25.2932C26.8502 24.2152 24.1845 23.0916 21.5154 21.9786C21.4393 21.9371 21.3683 21.887 21.3037 21.8293C22.8297 20.8322 24.5109 20.1352 26.148 19.3557C27.2735 18.8167 28.4326 18.3497 29.5652 17.8248C29.6953 17.7522 29.8411 17.7116 29.9902 17.7064C30.1393 17.7013 30.2876 17.7316 30.4225 17.7949C33.1481 18.9466 35.8455 20.1562 38.4335 21.5994C38.5658 21.6748 38.7175 21.731 38.7334 21.9154Z" fill="#E83565"/>
<path d="M24.0822 13.6675C24.3344 13.3427 24.151 12.9652 24.2092 12.6141C24.5091 11.9119 24.3856 11.1376 24.5902 10.4196C24.6714 10.1457 24.719 9.87184 24.9995 9.71735C24.906 10.2282 24.8231 10.7409 24.719 11.2518C24.4403 12.6879 24.7472 13.0881 26.2115 13.2637C27.8151 13.4765 29.433 13.5652 31.0505 13.5288C32.2748 13.4867 33.4762 13.2619 34.6881 13.1268C34.9898 13.0934 35.1062 12.7265 35.4255 12.7353C35.42 12.7881 35.4295 12.8415 35.4529 12.8893C35.4762 12.937 35.5126 12.9774 35.5579 13.0056C35.5684 13.3181 35.5067 13.6394 35.6955 13.9256C35.7643 14.7051 36.1224 15.539 35.2774 16.1482L34.2189 16.1675C33.4037 16.3177 32.5779 16.4034 31.7491 16.4238C31.4933 16.4238 31.2075 16.3711 31.0664 16.6836C30.2443 16.4185 29.3975 16.5871 28.5631 16.5449C27.6047 16.3644 26.6311 16.2762 25.6558 16.2816C25.3506 16.006 24.9078 16.2816 24.5973 16.0235C24.0963 15.7058 23.8352 15.3213 24.0328 14.6787C24.1368 14.375 24.0733 14.0098 24.0822 13.6675Z" fill="#FEB860"/>
<path d="M35.9566 16.8223C35.9331 16.7619 35.8971 16.7071 35.8509 16.6614C35.8047 16.6157 35.7494 16.5802 35.6885 16.5572C35.8509 16.3253 36.0592 16.1287 36.3006 15.9796C38.2448 14.5225 40.4102 13.3834 42.715 12.6053C43.8388 12.2086 44.9908 11.8943 46.1816 12.1471C47.7022 12.4684 48.8877 14.1678 48.8895 15.9041C48.9318 16.2974 48.6478 16.4782 48.3867 16.6801C47.3953 17.4403 46.2027 17.5421 45.0349 17.5913C43.4172 17.6615 41.7924 17.6615 40.1764 17.5913C38.7384 17.5526 37.3151 17.2933 35.9566 16.8223Z" fill="#F2A150"/>
<path d="M48.8894 15.9112C48.8894 14.1749 47.7021 12.4754 46.1815 12.1542C44.9907 11.9014 43.8387 12.2156 42.7149 12.6124C40.4101 13.3905 38.2447 14.5296 36.3005 15.9867C36.0591 16.1358 35.8508 16.3323 35.6884 16.5643L35.4326 16.5731L35.4202 16.5608L35.2773 16.1658C36.1224 15.5566 35.7642 14.7226 35.6954 13.9431C36.0449 13.682 36.3565 13.3742 36.6216 13.0285C38.1 11.9663 39.6206 10.9814 41.2948 10.2353C42.6096 9.63821 43.9729 9.15309 45.37 8.78514C46.933 8.38486 48.4378 9.17664 49.154 10.5794C49.9849 12.2103 49.9038 13.9151 49.1893 15.5776C49.1369 15.7235 49.0293 15.8432 48.8894 15.9112Z" fill="#DD8536"/>
<path d="M36.6218 13.0214C36.3567 13.3671 36.0451 13.6749 35.6956 13.9361C35.5069 13.6499 35.5686 13.3286 35.558 13.0161C35.7591 12.6878 36.1949 12.5965 36.3572 12.2296C36.6271 12.4333 36.3378 12.823 36.6218 13.0214Z" fill="#EDAD55"/>
<path d="M35.2985 16.6924L35.2385 16.7486L35.2932 16.6871L35.2985 16.6924Z" fill="#DD8536"/>
<path d="M35.2932 16.6871L35.4202 16.5537L35.4326 16.566L35.2985 16.6924L35.2932 16.6871Z" fill="#DD8536"/>
<path d="M24.6025 16.0341C24.9112 16.2956 25.354 16.0165 25.661 16.2921C25.5111 16.5836 25.407 16.9189 24.9995 16.954C24.816 16.6696 24.509 16.4378 24.6025 16.0341Z" fill="#EDAD55"/>
</g>
<defs>
<clipPath id="clip0_268_69">
<rect width="60" height="60" fill="white"/>
</clipPath>
</defs>
</svg>
