<svg width="38" height="39" viewBox="0 0 38 39" fill="none" xmlns="http://www.w3.org/2000/svg">
<path d="M17.9796 0H20.0578L21.1155 0.114192L21.9691 0.228384L22.5072 0.323544L23.3053 0.494832L23.9546 0.66612L24.604 0.856439L25.2719 1.08482L25.8285 1.29418L26.3295 1.50353L26.9603 1.78935L27.313 1.96064L27.6656 2.15096L28.1666 2.41775L28.612 2.68455L29.0759 2.97037L29.6882 3.38942L30.0038 3.61781L30.3379 3.86522L30.672 4.13202L30.969 4.37943L31.1545 4.53169L31.433 4.7791L31.6929 5.00749L31.9899 5.29331L32.1383 5.42654V5.4646L32.2125 5.50267L32.6578 5.95978L32.7876 6.11204L32.9731 6.30236L33.1029 6.45461L33.2883 6.66396L33.4552 6.87332L33.6221 7.06364L33.7704 7.25395L34.29 7.93945L34.4569 8.18687L34.6979 8.52979L35.1062 9.17722L35.4218 9.71047L35.6817 10.1866L35.9043 10.6057L36.2013 11.215L36.4424 11.7673L36.5907 12.1293L36.7947 12.6625L36.9801 13.1957L37.2212 13.9574L37.4437 14.7955L37.6106 15.5381L37.7589 16.3571L37.8517 17.0426L37.9444 17.9188L38 18.5282V20.3563L37.9073 21.4608L37.796 22.375L37.6848 23.0605L37.5735 23.6318L37.3881 24.4319L37.1281 25.3461L36.8496 26.1842L36.5526 26.9649L36.3115 27.5171L36.0705 28.0504L35.7364 28.7168L35.4764 29.174L35.2354 29.612L34.8271 30.2595L34.5486 30.6785L34.3075 31.0214L34.0105 31.4215L33.8065 31.6883L33.5466 32.0121L33.3055 32.298L33.1386 32.4883L33.0088 32.6405L32.7489 32.9264L32.582 33.0977L32.5634 33.1357H32.5263L32.4893 33.2119L32.3038 33.4022L32.1555 33.5354L31.933 33.7638L31.7846 33.897L31.5621 34.1064L31.3581 34.2776L31.1356 34.487L30.8757 34.6963L30.5972 34.9247L30.3746 35.096L30.022 35.3628L29.725 35.5722L29.2796 35.877L28.8713 36.1438L28.4259 36.4106L27.9991 36.658L27.3497 37.0009L26.7375 37.3058L26.1252 37.5726L25.55 37.801L24.9192 38.0294L24.2513 38.2387L23.4907 38.4481L22.8413 38.6003L22.1364 38.7336L21.3569 38.8477L20.3734 38.9619L19.928 39H18.0909L17.1259 38.9048L16.2166 38.7906L15.5488 38.6765L14.8067 38.5242L14.0646 38.3339L13.304 38.1055L12.4318 37.8006L11.6897 37.4958L11.1331 37.2484L10.4096 36.8864L9.85291 36.5816L9.40754 36.3148L9.09196 36.1244L8.77639 35.9151L8.34956 35.6293L8.03398 35.4009L7.69986 35.1535L7.4588 34.9631L7.19886 34.7538L7.01342 34.6015L6.75348 34.3731L6.5495 34.2019L6.32698 33.9925L6.17864 33.8593L5.88161 33.5735L5.08357 32.7544L4.95377 32.6021L4.76833 32.3928L4.63853 32.2405L4.41601 31.9737L4.15607 31.6498L3.98918 31.4215L3.76666 31.1356L3.54414 30.8117L3.30307 30.4688L2.91333 29.8595L2.63484 29.3833L2.35635 28.8881L2.04078 28.2788L1.74375 27.6694L1.46526 27.022L1.24274 26.4507L0.982796 25.7081L0.797363 25.1177L0.61193 24.4513L0.44504 23.7467L0.27815 22.8896L0.148347 22.0325L0.05563 21.1753L0 20.5279V18.414L0.129803 17.1191L0.259607 16.2049L0.44504 15.2526L0.686103 14.2622L0.89008 13.5767L1.15002 12.7961L1.42851 12.0725L1.66957 11.5012L1.9666 10.8538L2.24509 10.3015L2.50504 9.84438L2.69047 9.50146L2.95041 9.08241L3.15439 8.75852L3.30274 8.53014L3.52526 8.20625L3.76632 7.86332L3.9703 7.59653L4.15573 7.34911L4.34116 7.12073L4.50805 6.91138L4.69348 6.70203L4.86037 6.49268L5.08289 6.24526L5.26833 6.05494L5.30542 5.99784H5.3425L5.37959 5.92172L5.84351 5.44557L5.99186 5.31235L6.21438 5.08396L6.36272 4.95074L6.88227 4.49362L7.1793 4.24621L7.42037 4.05589L7.75448 3.7891L8.10714 3.54168L8.38563 3.33233L8.79392 3.06553L9.1095 2.85618L9.55487 2.58939L9.94462 2.361L10.4642 2.07518L10.8725 1.86583L11.3178 1.65647L12.0228 1.35162L12.6722 1.1042L13.3401 0.875817L14.0265 0.666466L14.7686 0.476146L15.4921 0.32389L16.4014 0.171634L17.1809 0.076474L17.7375 0.019378L17.9786 0.000346036L17.9796 0Z" fill="url(#paint0_linear_218_40)"/>
<path d="M18.5055 7.58984H18.9277L19.2863 7.70137L19.5187 7.83542L19.7511 8.03632L19.899 8.21505L20.0257 8.43847L20.1311 8.72874L20.1733 9.04152L20.1942 22.2458L20.2152 23.0054L20.2574 23.1169L20.3418 23.2063L20.5529 23.2957L20.7853 23.2735L20.9119 23.1841L20.9964 23.0726L21.0173 23.0279L21.0382 18.2021L21.0592 17.6659L21.1227 17.3531L21.2706 17.0403L21.4185 16.8394L21.6084 16.6385L21.8826 16.4598L22.1994 16.3482L22.2838 16.3261H22.706L23.0228 16.4154L23.3184 16.572L23.5295 16.7507L23.6983 16.9516L23.8463 17.2197L23.9307 17.4657L23.9729 17.801L23.9939 22.3366L24.0148 22.8949L24.0783 23.029L24.2262 23.1405L24.2897 23.1627H24.543L24.691 23.0733H24.7332L24.8176 22.8946L24.8386 19.9901L24.8595 19.4539L24.9439 19.0965L25.1128 18.7612L25.3452 18.4931L25.5775 18.3143L25.8099 18.2028L26.1267 18.1134H26.4645L26.8022 18.2028L27.14 18.3815L27.3723 18.5824L27.5621 18.8505L27.6888 19.1186L27.7523 19.3867L27.7732 19.6102L27.7942 22.6708L27.8151 23.0283L27.8786 23.1623L28.0053 23.2517L28.1319 23.2964H28.3008L28.4487 23.2517L28.5967 23.073L28.6176 23.0283L28.6385 21.8887L28.6595 21.509L28.7439 21.1737L28.8706 20.9056L28.9972 20.7269L29.1026 20.5928L29.3559 20.3919L29.6302 20.2579L29.8625 20.1907L30.1793 20.1685L30.5171 20.2357L30.8339 20.3698L31.1294 20.5932L31.2983 20.7941L31.4462 21.04L31.5307 21.286L31.5729 21.5762V21.9784L31.5307 22.9168L31.4462 23.9445L31.3196 25.0169L31.1716 25.9778L31.0028 26.8493L30.7495 27.9217L30.4752 28.8601L30.2641 29.4856L29.9899 30.2006L29.7366 30.7815L29.4623 31.3624L29.209 31.8314L28.9557 32.256L28.6389 32.7476L28.3646 33.1272L28.1113 33.44L27.9215 33.6634L27.7736 33.8421L27.3723 34.2668L27.2035 34.4234L26.9292 34.6693L26.655 34.8927L26.2537 35.183L25.8106 35.4733L25.2405 35.7861L24.6916 36.032L24.0371 36.2554L23.5095 36.3895L22.982 36.4788L22.5598 36.5235H21.4199L20.8923 36.4563L20.3222 36.3448L19.8156 36.2107L19.1192 35.9648L18.5281 35.6967L18.1269 35.4733L17.7256 35.2273L17.219 34.8699L16.9657 34.669L16.607 34.3562L16.3328 34.0881L15.8896 33.6191L15.6998 33.3731L15.5309 33.1497L15.1932 32.6135L14.8345 31.9879L14.539 31.4517L14.2222 30.8708L13.9267 30.3125L13.6311 29.7763L13.3143 29.1729L13.0188 28.6366L12.8077 28.2345L12.47 27.6311L12.1113 27.0055L11.7945 26.4915L11.6256 26.2234L11.3723 25.8437L11.1399 25.5309L10.9501 25.285L10.8022 25.1284L10.6542 24.9497L10.4854 24.7263L10.3374 24.4135L10.2739 24.1454V23.9445L10.3584 23.587L10.4637 23.3636L10.6536 23.0955L10.8646 22.8946L11.1389 22.7159L11.4344 22.5818L11.8566 22.4924H12.1521L12.4899 22.5596L12.8067 22.6712L13.1022 22.8499L13.3555 23.0508L13.6088 23.2967L16.4375 26.2906L16.6485 26.4471L16.6908 26.4693H16.9441L17.1339 26.3352L17.2183 26.1787L17.2393 9.48908L17.2602 8.93071L17.3446 8.57324L17.5135 8.23793L17.7459 7.96983L17.9357 7.81325L18.2312 7.65668L18.5055 7.58948V7.58984Z" fill="url(#paint1_linear_218_40)"/>
<path d="M18.4847 3.74695H18.9279L19.371 3.79163L19.9198 3.90316L20.3629 4.03721L20.8696 4.26063L21.3552 4.52874L21.6721 4.75216L21.9676 4.9981L22.1787 5.19899L22.3266 5.33305L22.4745 5.51178L22.6012 5.64583V5.69052H22.6434L22.9177 6.09267L23.1075 6.40546L23.3398 6.87446L23.5087 7.3213L23.6354 7.76814L23.7408 8.30434L23.783 8.66181L23.8039 9.2427L23.7617 9.84612L23.635 10.4939L23.5297 10.8513L23.3608 11.3203L23.1919 11.6778L23.0021 12.0353L22.8123 12.3034L22.6644 12.4374L22.6221 12.4596H22.411L22.2631 12.3924L22.1365 12.2808L22.073 12.1693L22.052 11.9459L22.1365 11.745L22.4742 11.1194L22.6431 10.7173L22.7697 10.2926L22.8542 9.89044L22.8964 9.53297V8.79587L22.8329 8.30434L22.7275 7.83534L22.6009 7.45571L22.432 7.05355L22.2209 6.67392L21.9676 6.31645L21.7143 6.02618L21.4819 5.78024L21.1232 5.48998L20.7855 5.26656L20.4477 5.08782L20.1309 4.95377L19.7087 4.81972L19.2656 4.73035L19.0545 4.70819H18.2946L17.8933 4.77539L17.5347 4.86476L17.049 5.04349L16.7112 5.22223L16.4157 5.40097L16.078 5.66907L15.7824 5.93717L15.5082 6.24996L15.2971 6.54023L15.0228 7.00923L14.833 7.4339L14.6851 7.88074L14.5797 8.37226L14.5375 8.66253L14.5166 8.93063V9.33279L14.5801 9.86899L14.6854 10.3605L14.8121 10.7627L15.0019 11.2095L15.1917 11.5448L15.3396 11.8351L15.3606 11.9245V12.1253L15.2762 12.2819L15.1282 12.416L15.0016 12.4607L14.7905 12.4385L14.6638 12.3491L14.4949 12.1482L14.2416 11.7014L13.9883 11.143L13.7985 10.5396L13.7141 10.16L13.6506 9.71314L13.6296 9.4672V8.84162L13.7141 8.14884L13.8407 7.61264L14.0096 7.09859L14.1575 6.74112L14.3899 6.29429L14.6432 5.91465L14.8756 5.62438L15.0235 5.44565L15.3613 5.08818L15.6568 4.84224L15.9736 4.5963L16.4167 4.3282L16.8389 4.1273L17.282 3.97073L17.5988 3.88136L18.042 3.79199L18.4851 3.74731L18.4847 3.74695Z" fill="url(#paint2_linear_218_40)"/>
<path d="M10.9908 18.314H11.3076L11.772 18.3586L12.3208 18.4702L12.7221 18.6042L13.1443 18.783L13.482 18.9617L13.8198 19.1851L14.0731 19.386L14.3899 19.6541V19.6988L14.4743 19.7435L14.6432 19.9222L14.7911 20.101L15.0867 20.5256L15.2555 20.8159L15.4244 21.1734L15.4453 21.2627V21.5087L15.3609 21.6427L15.213 21.7768L15.1076 21.8215H14.9178L14.7489 21.7321L14.6223 21.5534L14.3689 21.0844L14.1156 20.7269L13.8623 20.4366L13.6934 20.2579L13.3348 19.9676L13.018 19.7667L12.5748 19.5433L12.1736 19.4093L11.646 19.2977L11.4137 19.2756H10.8648L10.4217 19.3428L10.0205 19.4543L9.61921 19.6109L9.17609 19.8568L8.8174 20.1249L8.5006 20.4152L8.24729 20.7054L7.99398 21.0851L7.80417 21.4204L7.61435 21.8672L7.4877 22.2919L7.40326 22.7834L7.38232 23.0294V23.6103L7.46676 24.1686L7.59341 24.6376L7.78323 25.1066L7.99432 25.5088L8.18413 25.7769L8.4165 26.0671L8.69075 26.3574L8.98628 26.6034L9.26053 26.7821L9.66177 26.983L9.91508 27.0945L10.2528 27.2286L10.4217 27.3851L10.4639 27.4967V27.7648L10.3373 27.9882L10.2106 28.0776L10.1471 28.0997H9.9573L9.38718 27.8988L8.98594 27.6979L8.69041 27.5192L8.35267 27.2733L8.14157 27.0945L7.88826 26.8486L7.69845 26.6477L7.50864 26.4017L7.27627 26.0664L7.1074 25.7762L6.85409 25.2621L6.70615 24.8374L6.62172 24.5472L6.51634 23.9888L6.47412 23.542V23.1173L6.51634 22.6705L6.62172 22.0896L6.79059 21.5087L6.95946 21.1065L7.14928 20.7269L7.36037 20.3916L7.52924 20.1682L7.78255 19.8554L8.01492 19.6094L8.24729 19.4085L8.58504 19.1404L8.98628 18.8945L9.4294 18.6711L9.93602 18.4923L10.4217 18.3808L10.7172 18.3361L10.9915 18.314H10.9908Z" fill="url(#paint3_linear_218_40)"/>
<path d="M29.0602 26.6251H29.2713L29.4402 26.7145L29.5881 26.8932L29.6091 26.9604V27.2064L29.4611 27.7647L29.2078 28.569L28.9545 29.284L28.6803 29.9317L28.4479 30.4458L28.1946 30.9373L27.9413 31.3841L27.688 31.7863L27.4769 32.0991L27.2658 32.3893L27.0125 32.7021L26.8227 32.9255L26.5903 33.1936L26.4424 33.3502L26.2735 33.5068L25.978 33.7749L25.7246 33.9758L25.4713 34.1545L25.0914 34.4005L24.7536 34.5792L24.4368 34.7358L23.9724 34.9145L23.4867 35.0485L22.8747 35.1601L22.2415 35.2048H21.9247L21.5025 35.1826L20.9749 35.1154L20.7425 35.026L20.6372 34.9367L20.5737 34.8251L20.5527 34.7358V34.557L20.6162 34.3783L20.7851 34.2217L20.8695 34.177H21.0594L21.5238 34.2442L21.7561 34.2664H22.3894L22.8325 34.2217L23.4445 34.0877L24.0778 33.8642L24.6054 33.5961L25.0275 33.328L25.3653 33.0599L25.5764 32.8812L25.8297 32.6353H25.8719V32.5906L26.0408 32.434L26.2941 32.1437L26.5474 31.831L26.7585 31.5407L26.9696 31.2279L27.1807 30.8926L27.413 30.4679L27.6873 29.9317L27.9615 29.3283L28.2358 28.6134L28.4469 27.9878L28.6792 27.2056L28.7846 26.8482L28.9113 26.6916L29.0592 26.6244L29.0602 26.6251Z" fill="url(#paint4_linear_218_40)"/>
<defs>
<linearGradient id="paint0_linear_218_40" x1="18.8556" y1="10.1229" x2="19.0077" y2="39" gradientUnits="userSpaceOnUse">
<stop stop-color="#547C21"/>
<stop offset="1" stop-color="#99E23C"/>
</linearGradient>
<linearGradient id="paint1_linear_218_40" x1="18.4528" y1="36.6008" x2="18.941" y2="-0.460648" gradientUnits="userSpaceOnUse">
<stop offset="0.246998" stop-color="#FEFDFD"/>
<stop offset="1" stop-color="#989797"/>
</linearGradient>
<linearGradient id="paint2_linear_218_40" x1="18.7757" y1="12.4607" x2="18.6437" y2="3.74716" gradientUnits="userSpaceOnUse">
<stop stop-color="#FEFDFD"/>
<stop offset="0.675178" stop-color="#989797"/>
</linearGradient>
<linearGradient id="paint3_linear_218_40" x1="9.58961" y1="23.0677" x2="13.7525" y2="13.2348" gradientUnits="userSpaceOnUse">
<stop stop-color="#FEFDFD"/>
<stop offset="1" stop-color="#989797"/>
</linearGradient>
<linearGradient id="paint4_linear_218_40" x1="30.3675" y1="19.8382" x2="19.859" y2="34.5089" gradientUnits="userSpaceOnUse">
<stop stop-color="#547C21"/>
<stop offset="1" stop-color="#99E23C"/>
</linearGradient>
</defs>
</svg>
