<svg width="38" height="39" viewBox="0 0 38 39" fill="none" xmlns="http://www.w3.org/2000/svg">
<path d="M28.9641 0C29.5599 0.163827 30.1382 0.358181 30.6072 0.786573C31.2617 1.3849 31.6555 2.11754 31.6575 2.99671C31.6699 8.93722 31.6658 14.8777 31.6658 20.8182C31.6658 20.8681 31.6555 20.917 31.6472 20.9923H29.9691V20.5455C29.9691 14.8208 29.9691 9.09596 29.9691 3.37219C29.9691 2.21624 29.4208 1.67694 28.2457 1.67694C19.9655 1.67694 11.6843 1.67694 3.40412 1.67694C2.24656 1.67694 1.69819 2.21116 1.69819 3.34879C1.69819 14.1125 1.69819 24.8763 1.69819 35.64C1.69819 36.7858 2.24244 37.3231 3.39278 37.3231C11.6214 37.3231 19.8511 37.3231 28.0797 37.3231C29.3713 37.3231 29.7753 36.9964 30.0124 35.754H31.6524C31.6957 36.7227 31.3462 37.5286 30.6319 38.1829C29.998 38.7629 29.2332 39.001 28.3745 39C23.7711 38.9959 19.1687 38.998 14.5653 38.998C10.837 38.998 7.10768 38.998 3.37938 38.998C1.3199 38.998 0.00257693 37.7046 0.00154616 35.6695C-0.000515385 24.8803 -0.000515385 14.0912 0.00154616 3.30198C0.00154616 1.59248 0.884916 0.485376 2.55992 0.0590184C2.59393 0.0498604 2.62279 0.0203512 2.65372 0C11.4235 0 20.1943 0 28.9641 0Z" fill="url(#paint0_linear_218_21)"/>
<path d="M19.531 9.48515C17.2274 9.48515 14.9237 9.48898 12.62 9.48387C11.8608 9.48259 11.4029 8.72872 11.7053 7.99146C11.8673 7.59664 12.1502 7.4037 12.5142 7.38581C12.7972 7.37303 13.0801 7.3807 13.3631 7.3807C17.6205 7.3807 21.8779 7.3807 26.1353 7.3807C26.2563 7.3807 26.3783 7.37687 26.4993 7.38198C27.0576 7.40881 27.4486 7.85091 27.4443 8.44506C27.4399 9.04305 27.0479 9.48003 26.4841 9.48131C24.1664 9.4877 21.8498 9.48387 19.5321 9.48387L19.531 9.48515Z" fill="url(#paint1_linear_218_21)"/>
<path d="M19.5034 17.9182C17.2801 17.9182 15.0569 17.9182 12.8337 17.9182C12.6857 17.9182 12.5366 17.9201 12.3897 17.9105C11.9695 17.8824 11.6486 17.6821 11.614 17.4351C11.5795 17.1927 11.8506 16.9579 12.2601 16.8964C12.4275 16.8715 12.6057 16.8664 12.7797 16.8664C17.2801 16.8651 21.7806 16.8651 26.2811 16.8651C26.3891 16.8651 26.4971 16.8632 26.6041 16.8708C27.1086 16.9067 27.464 17.1389 27.4435 17.4147C27.4229 17.6968 27.0546 17.9112 26.536 17.9144C25.4039 17.922 24.2728 17.9176 23.1407 17.9182C21.9275 17.9182 20.7154 17.9182 19.5023 17.9182H19.5034Z" fill="url(#paint2_linear_218_21)"/>
<path d="M6.82362 9.48321C6.49664 9.48321 6.16965 9.49165 5.84267 9.48133C4.96666 9.45414 4.26773 8.7762 4.23868 7.8976C4.2162 7.20842 4.21713 6.51829 4.23868 5.8291C4.26585 4.93738 4.9676 4.251 5.8661 4.2285C6.51912 4.21162 7.17402 4.21256 7.82799 4.2285C8.74054 4.25006 9.42917 4.91675 9.47507 5.85348C9.50787 6.51829 9.50787 7.18685 9.47695 7.85072C9.43198 8.83246 8.72648 9.4757 7.73523 9.48508C7.43167 9.48789 7.12811 9.48508 6.82455 9.48508V9.48321H6.82362ZM7.94323 6.8596C7.94323 6.8596 7.94323 6.8596 7.94229 6.8596C7.94229 6.57924 7.9629 6.297 7.93105 6.02039C7.92074 5.92849 7.77552 5.78409 7.68839 5.78034C7.14123 5.75784 6.5922 5.77378 6.04411 5.76628C5.85017 5.76346 5.77053 5.8366 5.7724 6.03258C5.77803 6.58111 5.77896 7.13059 5.7724 7.67913C5.76959 7.87416 5.84642 7.94636 6.0413 7.94355C6.56597 7.93511 7.09157 7.92667 7.61624 7.94636C7.8917 7.95668 7.96103 7.83947 7.94791 7.59474C7.93479 7.35 7.9451 7.10433 7.9451 6.8596H7.94323Z" fill="url(#paint3_linear_218_21)"/>
<path d="M4.22953 31.0459C4.22953 30.7081 4.21544 30.3694 4.23235 30.0316C4.27556 29.1716 4.95764 28.4969 5.82479 28.4735C6.51532 28.4548 7.20679 28.4548 7.89637 28.4735C8.69401 28.496 9.38266 29.0818 9.44842 29.8706C9.51231 30.6464 9.51606 31.4334 9.46345 32.21C9.40614 33.0719 8.72877 33.6745 7.84846 33.7091C7.18236 33.7354 6.5125 33.7382 5.84734 33.7082C4.90033 33.6652 4.24926 32.9708 4.22577 32.0248C4.21825 31.6982 4.22483 31.3716 4.22483 31.045C4.22671 31.045 4.22765 31.045 4.22953 31.045V31.0459ZM7.94711 31.0796C7.94711 30.812 7.94335 30.5434 7.94805 30.2758C7.95181 30.0887 7.88228 30.0007 7.68123 30.0035C7.13163 30.011 6.58202 30.0119 6.03242 30.0035C5.83231 30.0007 5.76654 30.084 5.76842 30.2739C5.775 30.8101 5.77594 31.3454 5.76842 31.8816C5.7656 32.0837 5.82949 32.1829 6.04839 32.1792C6.58672 32.1717 7.12411 32.1717 7.66244 32.1792C7.87759 32.182 7.95462 32.0865 7.94899 31.8835C7.94241 31.6158 7.94711 31.3473 7.94711 31.0796Z" fill="url(#paint4_linear_218_21)"/>
<path d="M6.84347 17.9112C6.50524 17.9112 6.16607 17.9247 5.82783 17.909C4.94431 17.8651 4.2641 17.0594 4.23692 15.996C4.21631 15.1971 4.21912 14.397 4.23411 13.598C4.25566 12.4694 4.934 11.6479 5.8803 11.6119C6.5221 11.5872 7.16484 11.5905 7.80663 11.6119C8.7267 11.6412 9.40879 12.3929 9.46688 13.4945C9.51091 14.3329 9.50998 15.1779 9.46969 16.0163C9.41535 17.1427 8.72951 17.8865 7.78977 17.9146C7.47496 17.9236 7.15921 17.9157 6.84441 17.9157C6.84441 17.9146 6.84441 17.9135 6.84441 17.9112H6.84347ZM6.83691 16.0624C7.11705 16.0624 7.39626 16.0545 7.6764 16.0647C7.87503 16.0725 7.9453 15.9656 7.94343 15.7383C7.93874 15.08 7.9528 14.4218 7.93031 13.7657C7.92656 13.6599 7.77759 13.4776 7.69139 13.4731C7.13298 13.4461 6.5727 13.4619 6.01335 13.4585C5.83252 13.4574 5.76881 13.5587 5.76974 13.768C5.77443 14.4263 5.7763 15.0834 5.76974 15.7417C5.76693 15.9713 5.83533 16.0737 6.03302 16.0658C6.30098 16.0545 6.56895 16.0624 6.83691 16.0624Z" fill="url(#paint5_linear_218_21)"/>
<path d="M4.22572 23.1748C4.22572 22.7976 4.21916 22.4192 4.2276 22.042C4.25292 20.9194 4.89448 20.1011 5.82586 20.0528C6.50212 20.018 7.18213 20.0191 7.85838 20.0517C8.75506 20.0943 9.40693 20.8251 9.46508 21.8972C9.51198 22.747 9.51011 23.6047 9.4679 24.4545C9.4135 25.5255 8.77288 26.2664 7.87527 26.3203C7.19901 26.3607 6.519 26.3618 5.84274 26.3225C4.88416 26.2675 4.24917 25.4525 4.22572 24.3086C4.21822 23.9314 4.22478 23.5531 4.22572 23.1759V23.1748ZM6.83415 24.4893C7.11459 24.4893 7.3941 24.4848 7.67455 24.4916C7.86776 24.4961 7.94655 24.3939 7.94374 24.1638C7.93811 23.5216 7.93811 22.8795 7.94374 22.2363C7.94655 21.9915 7.87152 21.8804 7.65766 21.8838C7.12116 21.8927 6.58465 21.8927 6.04721 21.8838C5.83336 21.8804 5.76208 21.9859 5.76583 22.234C5.77521 22.8627 5.7799 23.4913 5.76395 24.1189C5.75645 24.4264 5.869 24.5062 6.09786 24.4938C6.34266 24.4803 6.58747 24.4904 6.83321 24.4904L6.83415 24.4893Z" fill="url(#paint6_linear_218_21)"/>
<path d="M26.3888 33.7298C26.1931 33.7298 26.0623 33.7298 25.9315 33.7298C21.5582 33.7298 17.1837 33.7298 12.8103 33.7286C12.6264 33.7286 12.4361 33.7254 12.2596 33.6992C11.8491 33.6381 11.5854 33.4112 11.6131 33.1678C11.6418 32.9128 11.9725 32.7096 12.4052 32.6853C12.5233 32.6783 12.6434 32.6802 12.7625 32.6802C16.6595 32.6802 20.5555 32.6822 24.4525 32.6758C24.7491 32.6758 24.9214 32.7306 25.1064 32.8708C25.4881 33.1601 25.9262 33.4233 26.3888 33.7292V33.7298Z" fill="url(#paint7_linear_218_21)"/>
<path d="M24.2766 24.2433C24.0251 24.9289 23.8197 25.5442 23.5702 26.1301C23.5158 26.2567 23.3043 26.3398 23.1646 26.3411C21.6676 26.3565 20.1706 26.3501 18.6745 26.3501C16.7042 26.3501 14.7338 26.3501 12.7634 26.3501C12.0241 26.3501 11.6237 25.9881 11.6114 25.3139C11.599 24.6258 12.0097 24.2446 12.7685 24.2446C16.4536 24.2446 20.1377 24.2446 23.8228 24.2446H24.2777L24.2766 24.2433Z" fill="url(#paint8_linear_218_21)"/>
<path d="M16.364 29.5174C17.6402 29.5174 18.9153 29.5098 20.1915 29.5212C20.862 29.5276 21.2714 30.2171 21.051 30.9347C20.9132 31.3821 20.5884 31.614 20.0704 31.6153C18.3002 31.6179 16.529 31.6166 14.7588 31.6153C14.0162 31.6153 13.2748 31.6332 12.5322 31.609C11.8116 31.5847 11.397 30.7677 11.7249 30.0553C11.9098 29.6538 12.2064 29.511 12.575 29.5136C13.8377 29.5212 15.1003 29.5161 16.364 29.5174Z" fill="url(#paint9_linear_218_21)"/>
<path d="M16.3307 6.32363C15.0931 6.32363 13.8544 6.32491 12.6167 6.32363C12.0062 6.32299 11.6163 6.11769 11.6111 5.80368C11.6069 5.48902 12 5.27222 12.6031 5.27158C15.1056 5.26966 17.6071 5.26966 20.1096 5.27158C20.7169 5.27158 21.1078 5.48007 21.111 5.79537C21.1152 6.11386 20.7315 6.32235 20.1221 6.32299C18.8583 6.32491 17.5935 6.32299 16.3297 6.32299L16.3307 6.32363Z" fill="url(#paint10_linear_218_21)"/>
<path d="M16.3506 14.7529C15.0738 14.7529 13.7981 14.7644 12.5213 14.7478C11.7857 14.7376 11.3793 13.8729 11.7513 13.1538C11.9644 12.74 12.2946 12.6493 12.6644 12.6506C14.6831 12.6532 16.7017 12.6506 18.7203 12.6506C19.1759 12.6506 19.6324 12.6455 20.088 12.6519C20.7201 12.6596 21.1192 13.0823 21.1109 13.7248C21.1025 14.357 20.7243 14.7491 20.1005 14.7516C18.8499 14.7567 17.6002 14.7529 16.3496 14.7516L16.3506 14.7529Z" fill="url(#paint11_linear_218_21)"/>
<path d="M16.3443 22.1347C15.1592 22.1347 13.9741 22.1353 12.788 22.1341C12.6197 22.1341 12.4473 22.1321 12.2832 22.1123C11.8861 22.0643 11.6029 21.8396 11.6113 21.595C11.6207 21.3491 11.9185 21.1347 12.3188 21.0956C12.4588 21.0822 12.6041 21.0815 12.7472 21.0815C15.1571 21.0809 17.567 21.0809 19.9769 21.0815C20.12 21.0815 20.2642 21.0815 20.4053 21.0956C20.8139 21.1353 21.1003 21.3415 21.1107 21.5937C21.1212 21.8447 20.8484 22.063 20.445 22.1123C20.281 22.1321 20.1085 22.1341 19.9403 22.1341C18.7416 22.136 17.544 22.1347 16.3453 22.1347H16.3443Z" fill="url(#paint12_linear_218_21)"/>
<path d="M28.4998 28.8813L30.0078 30.5675L33.7775 26.3513" stroke="url(#paint13_linear_218_21)" stroke-width="2" stroke-linecap="round" stroke-linejoin="round"/>
<path d="M30.6112 35.8378C26.5371 35.8378 23.2224 32.5279 23.2224 28.4594C23.2224 24.391 26.5371 21.0811 30.6112 21.0811C34.6854 21.0811 38.0001 24.391 38.0001 28.4594C38.0001 32.5279 34.6854 35.8378 30.6112 35.8378ZM30.6112 22.3515C27.2383 22.3515 24.4936 25.0913 24.4936 28.4605C24.4936 31.8297 27.2373 34.5695 30.6112 34.5695C33.9852 34.5695 36.7289 31.8297 36.7289 28.4605C36.7289 25.0913 33.9852 22.3515 30.6112 22.3515Z" fill="url(#paint14_linear_218_21)"/>
<defs>
<linearGradient id="paint0_linear_218_21" x1="15.8332" y1="0" x2="15.8332" y2="39" gradientUnits="userSpaceOnUse">
<stop stop-color="#547C21"/>
<stop offset="1" stop-color="#99E23C"/>
</linearGradient>
<linearGradient id="paint1_linear_218_21" x1="19.5277" y1="7.37842" x2="19.5277" y2="9.48653" gradientUnits="userSpaceOnUse">
<stop stop-color="#547C21"/>
<stop offset="1" stop-color="#99E23C"/>
</linearGradient>
<linearGradient id="paint2_linear_218_21" x1="19.5277" y1="16.8649" x2="19.5277" y2="17.9189" gradientUnits="userSpaceOnUse">
<stop stop-color="#547C21"/>
<stop offset="1" stop-color="#99E23C"/>
</linearGradient>
<linearGradient id="paint3_linear_218_21" x1="6.86104" y1="4.21619" x2="6.86104" y2="9.48646" gradientUnits="userSpaceOnUse">
<stop stop-color="#547C21"/>
<stop offset="1" stop-color="#99E23C"/>
</linearGradient>
<linearGradient id="paint4_linear_218_21" x1="6.86104" y1="28.4595" x2="6.86104" y2="33.7297" gradientUnits="userSpaceOnUse">
<stop stop-color="#547C21"/>
<stop offset="1" stop-color="#99E23C"/>
</linearGradient>
<linearGradient id="paint5_linear_218_21" x1="6.86104" y1="11.5946" x2="6.86104" y2="17.9189" gradientUnits="userSpaceOnUse">
<stop stop-color="#547C21"/>
<stop offset="1" stop-color="#99E23C"/>
</linearGradient>
<linearGradient id="paint6_linear_218_21" x1="6.86104" y1="20.027" x2="6.86104" y2="26.3513" gradientUnits="userSpaceOnUse">
<stop stop-color="#547C21"/>
<stop offset="1" stop-color="#99E23C"/>
</linearGradient>
<linearGradient id="paint7_linear_218_21" x1="18.9999" y1="32.6758" x2="18.9999" y2="33.7298" gradientUnits="userSpaceOnUse">
<stop stop-color="#547C21"/>
<stop offset="1" stop-color="#99E23C"/>
</linearGradient>
<linearGradient id="paint8_linear_218_21" x1="17.9444" y1="24.2433" x2="17.9444" y2="26.3514" gradientUnits="userSpaceOnUse">
<stop stop-color="#547C21"/>
<stop offset="1" stop-color="#99E23C"/>
</linearGradient>
<linearGradient id="paint9_linear_218_21" x1="16.361" y1="29.5135" x2="16.361" y2="31.6217" gradientUnits="userSpaceOnUse">
<stop stop-color="#547C21"/>
<stop offset="1" stop-color="#99E23C"/>
</linearGradient>
<linearGradient id="paint10_linear_218_21" x1="16.361" y1="5.27014" x2="16.361" y2="6.3242" gradientUnits="userSpaceOnUse">
<stop stop-color="#547C21"/>
<stop offset="1" stop-color="#99E23C"/>
</linearGradient>
<linearGradient id="paint11_linear_218_21" x1="16.361" y1="12.6487" x2="16.361" y2="14.7568" gradientUnits="userSpaceOnUse">
<stop stop-color="#547C21"/>
<stop offset="1" stop-color="#99E23C"/>
</linearGradient>
<linearGradient id="paint12_linear_218_21" x1="16.361" y1="21.0811" x2="16.361" y2="22.1351" gradientUnits="userSpaceOnUse">
<stop stop-color="#547C21"/>
<stop offset="1" stop-color="#99E23C"/>
</linearGradient>
<linearGradient id="paint13_linear_218_21" x1="31.1386" y1="26.3513" x2="31.1386" y2="35.3861" gradientUnits="userSpaceOnUse">
<stop stop-color="#E0A109"/>
<stop offset="1" stop-color="#7A5805"/>
</linearGradient>
<linearGradient id="paint14_linear_218_21" x1="30.6112" y1="21.0811" x2="30.906" y2="35.8378" gradientUnits="userSpaceOnUse">
<stop stop-color="#E0A109"/>
<stop offset="1" stop-color="#7A5805"/>
</linearGradient>
</defs>
</svg>
