<svg width="53" height="53" viewBox="0 0 53 53" fill="none" xmlns="http://www.w3.org/2000/svg">
<g clip-path="url(#clip0_293_2)">
<path d="M4.84474 51.6914C4.29303 51.6914 3.73985 51.7157 3.18961 51.6862C2.16737 51.6313 1.39706 51.017 1.35397 50.0281C1.22771 47.1303 1.21666 44.2225 2.42297 41.4976C3.36252 39.3754 5.02723 38.0385 7.24248 37.3683C7.48104 37.2961 7.59254 37.3381 7.7052 37.5562C8.40263 38.9059 9.4484 39.9503 10.575 40.9513C11.4491 41.7155 12.2622 42.5468 13.0071 43.4375C13.6542 44.2312 14.4751 44.8655 15.4064 45.2914C15.6934 45.4219 15.7218 45.5503 15.644 45.8286C15.2398 47.2735 14.3672 48.38 13.2951 49.4033C11.5868 51.0336 9.40407 51.2277 7.25965 51.5894C6.45785 51.7247 5.65122 51.7024 4.84474 51.6914Z" fill="url(#paint0_linear_293_2)"/>
<path d="M18.0103 44.0244C16.9478 43.9845 16.0617 43.6898 15.3585 42.9948C13.5656 41.2225 11.7724 39.4498 10.0173 37.6404C9.07125 36.665 8.80582 35.4492 9.13413 34.1393C9.5911 32.3489 10.1527 30.5867 10.8161 28.862C10.9785 28.4343 11.1095 28.5652 11.3212 28.7888C12.3622 29.8882 13.4213 30.9761 14.5048 32.0267C16.1859 33.6568 17.8765 35.2808 19.4802 36.9827C20.9921 38.5872 22.6586 40.0275 24.1749 41.6235C24.5184 41.9851 24.4946 42.0932 24.0284 42.2629C22.2611 42.9213 20.4577 43.4785 18.627 43.9317C18.4231 43.973 18.2173 44.0039 18.0103 44.0244Z" fill="url(#paint1_linear_293_2)"/>
<path d="M15.7511 16.2311C14.9741 17.341 14.1816 18.4404 13.4228 19.5626C10.708 23.5775 8.91476 28.0085 7.59301 32.6432C7.43374 33.2017 7.2758 33.2537 6.79272 32.9862C5.07083 32.0324 3.32014 31.1308 1.59604 30.181C-0.253844 29.1619 -0.544479 26.8459 0.980705 25.3925C2.83424 23.6262 4.74068 21.9218 6.83978 20.4457C9.38188 18.658 12.0668 17.1549 15.0794 16.3052C15.2888 16.2571 15.5007 16.22 15.714 16.1942L15.7511 16.2311Z" fill="url(#paint2_linear_293_2)"/>
<path d="M50.2526 13.3079C46.7517 9.8205 43.2581 6.3258 39.7717 2.82375C39.438 2.48766 39.1604 2.4559 38.7347 2.60546C35.5341 3.71387 32.4507 5.13539 29.5293 6.84935C25.6599 9.14063 22.1383 11.8649 19.157 15.2542C18.9621 15.4468 18.7523 15.6268 18.5744 15.834C15.9198 18.9 13.7094 22.3238 12.0081 26.0051C11.8114 26.4337 11.8401 26.6906 12.1804 27.0257C14.1853 28.9997 16.1639 31.0003 18.158 32.9854C18.4484 33.2745 18.6968 33.6119 19.06 33.8237C19.0894 33.8747 19.1233 33.9229 19.1611 33.9679C21.4851 36.297 23.8078 38.6273 26.1294 40.9587C26.3989 41.2309 26.6188 41.1776 26.9129 41.0423C30.5436 39.3637 33.9267 37.195 36.9678 34.5968C38.8297 32.9996 40.5458 31.24 42.0961 29.3389C45.8477 24.7906 48.54 19.6569 50.4928 14.1136C50.6251 13.7384 50.4941 13.5484 50.2526 13.3079ZM35.8594 23.9248C31.9476 23.9651 29.0855 20.4931 29.0766 17.1919C29.068 13.9977 31.7675 10.4253 35.8049 10.5198C36.6834 10.5085 37.5553 10.6726 38.3695 11.0027C39.1838 11.3327 39.9239 11.8221 40.5464 12.442C41.169 13.0619 41.6615 13.7998 41.9951 14.6126C42.3287 15.4254 42.4966 16.2966 42.489 17.1751C42.5015 18.9483 41.8109 20.6542 40.5683 21.9192C39.3258 23.1843 37.6325 23.9055 35.8594 23.9248Z" fill="url(#paint3_linear_293_2)"/>
<path d="M52.9997 3.53054C52.7633 5.32439 52.4314 7.10438 52.0055 8.86292C51.8121 9.66556 51.5782 10.4584 51.3841 11.261C51.2987 11.6142 51.1911 11.6381 50.9439 11.3812C50.4382 10.8558 49.9156 10.3467 49.4001 9.83079C46.8501 7.27924 44.2981 4.72975 41.7441 2.1823C41.3941 1.83522 41.3942 1.71735 41.8894 1.5817C44.317 0.913329 46.7839 0.396428 49.2757 0.0339887C51.272 -0.254064 53.0253 1.32118 52.9997 3.53054Z" fill="url(#paint4_linear_293_2)"/>
<path d="M34.3577 38.9725C31.0722 41.2107 27.5209 43.0314 23.7857 44.3925C22.5475 44.768 21.3136 45.1587 20.069 45.5112C19.5943 45.6456 19.8526 45.8678 19.9573 46.0649C20.9072 47.8533 21.8625 49.6388 22.8234 51.4213C23.0467 51.8331 23.2943 52.2447 23.7683 52.4329C24.9677 53.3127 26.4683 53.1611 27.6163 52.0326C28.4281 51.2346 29.1449 50.3477 29.9109 49.5076C31.9593 47.2681 33.6974 44.7633 35.0783 42.0607C35.8957 40.5017 36.5151 38.8467 36.9222 37.1342C36.0145 37.7861 35.1961 38.3938 34.3577 38.9725Z" fill="url(#paint5_linear_293_2)"/>
<path d="M15.714 16.1942L15.7978 16.1545C15.7821 16.18 15.7664 16.2055 15.7508 16.231L15.714 16.1942Z" fill="url(#paint6_linear_293_2)"/>
<path d="M35.7328 22.0265C33.1522 22.0112 30.9655 19.7638 30.9887 17.1507C31.0108 14.6517 33.3306 12.3354 35.8059 12.3407C38.3733 12.3462 40.665 14.6151 40.6743 17.1607C40.6836 19.7453 38.3513 22.042 35.7328 22.0265Z" fill="url(#paint7_linear_293_2)"/>
</g>
<defs>
<linearGradient id="paint0_linear_293_2" x1="8.48967" y1="37.3358" x2="8.48967" y2="51.7008" gradientUnits="userSpaceOnUse">
<stop offset="0.345" stop-color="#D9A02D"/>
<stop offset="1" stop-color="#A1751F"/>
</linearGradient>
<linearGradient id="paint1_linear_293_2" x1="16.7042" y1="28.5807" x2="16.7042" y2="44.0244" gradientUnits="userSpaceOnUse">
<stop offset="0.345" stop-color="#D9A02D"/>
<stop offset="1" stop-color="#A1751F"/>
</linearGradient>
<linearGradient id="paint2_linear_293_2" x1="7.87553" y1="16.1942" x2="7.87553" y2="33.1425" gradientUnits="userSpaceOnUse">
<stop offset="0.345" stop-color="#D9A02D"/>
<stop offset="1" stop-color="#A1751F"/>
</linearGradient>
<linearGradient id="paint3_linear_293_2" x1="31.2156" y1="2.52014" x2="31.2156" y2="41.1535" gradientUnits="userSpaceOnUse">
<stop offset="0.345" stop-color="#D9A02D"/>
<stop offset="1" stop-color="#A1751F"/>
</linearGradient>
<linearGradient id="paint4_linear_293_2" x1="47.2487" y1="0" x2="47.2487" y2="11.5531" gradientUnits="userSpaceOnUse">
<stop offset="0.345" stop-color="#D9A02D"/>
<stop offset="1" stop-color="#A1751F"/>
</linearGradient>
<linearGradient id="paint5_linear_293_2" x1="28.3574" y1="37.1342" x2="28.3574" y2="53.0001" gradientUnits="userSpaceOnUse">
<stop offset="0.345" stop-color="#D9A02D"/>
<stop offset="1" stop-color="#A1751F"/>
</linearGradient>
<linearGradient id="paint6_linear_293_2" x1="15.7559" y1="16.1545" x2="15.7559" y2="16.231" gradientUnits="userSpaceOnUse">
<stop offset="0.345" stop-color="#D9A02D"/>
<stop offset="1" stop-color="#A1751F"/>
</linearGradient>
<linearGradient id="paint7_linear_293_2" x1="35.8314" y1="12.3407" x2="35.8314" y2="22.0266" gradientUnits="userSpaceOnUse">
<stop offset="0.345" stop-color="#D9A02D"/>
<stop offset="1" stop-color="#A1751F"/>
</linearGradient>
<clipPath id="clip0_293_2">
<rect width="53" height="53" fill="white"/>
</clipPath>
</defs>
</svg>
