<svg width="234" height="85" viewBox="0 0 234 85" fill="none" xmlns="http://www.w3.org/2000/svg">
<path d="M11.6283 83.649C8.72166 82.9223 6.35999 81.3963 4.54332 79.071C2.79932 76.8183 1.38232 74.0933 0.292323 70.896C0.219656 69.9513 0.183323 68.6433 0.183323 66.972C0.25599 65.3007 0.36499 63.7383 0.510324 62.285C0.655657 60.8317 0.80099 59.996 0.946323 59.778C1.16432 59.6327 1.27332 59.1967 1.27332 58.47C1.20066 58.1793 1.23699 57.707 1.38232 57.053C1.60032 56.3263 1.81832 55.5997 2.03632 54.873C2.39966 54.001 2.58132 53.3107 2.58132 52.802C2.58132 52.2207 2.54499 51.7847 2.47232 51.494C2.47232 51.494 2.58132 51.276 2.79932 50.84C3.01732 50.3313 3.27166 49.9317 3.56232 49.641C3.99832 49.205 4.17999 48.769 4.10732 48.333C4.10732 47.897 4.10732 47.679 4.10732 47.679C4.03466 47.3883 4.10732 46.9887 4.32532 46.48C4.54332 45.9713 4.76132 45.5717 4.97932 45.281C5.12466 45.1357 5.30632 44.845 5.52432 44.409C5.81499 43.9003 5.96032 43.646 5.96032 43.646C5.96032 43.428 6.10566 42.8467 6.39632 41.902C6.75966 40.9573 7.15932 39.94 7.59532 38.85C8.03132 37.6873 8.43099 36.6337 8.79432 35.689C9.23032 34.7443 9.55732 34.1267 9.77532 33.836V33.618C10.066 32.8913 10.4657 32.1283 10.9743 31.329C11.047 30.9657 11.2287 30.3843 11.5193 29.585C11.81 28.713 12.137 27.8773 12.5003 27.078C13.2997 25.334 14.2807 23.372 15.4433 21.192C16.6787 18.9393 17.9867 16.723 19.3673 14.543C20.748 12.2903 22.056 10.292 23.2913 8.548C24.5993 6.73133 25.7257 5.387 26.6703 4.515C27.9057 3.13433 29.141 2.15333 30.3763 1.572C31.6843 0.917996 32.8833 1.136 33.9733 2.22599C34.482 2.73466 34.918 3.49766 35.2813 4.515C35.6447 5.45967 35.79 6.368 35.7173 7.24C35.7173 8.03933 35.4267 8.47533 34.8453 8.548C34.3367 8.83866 33.6463 9.67433 32.7743 11.055C31.9023 12.363 30.9213 13.9253 29.8313 15.742C28.814 17.5587 27.7967 19.448 26.7793 21.41C25.762 23.2993 24.8173 25.007 23.9453 26.533C23.0007 28.6403 22.1287 30.4933 21.3293 32.092C20.53 33.618 20.1303 34.381 20.1303 34.381C20.0577 34.599 19.985 34.7807 19.9123 34.926C19.8397 35.0713 19.767 35.2167 19.6943 35.362C18.6043 37.6147 17.696 39.6857 16.9693 41.575C16.2427 43.3917 15.516 45.3173 14.7893 47.352C14.3533 47.8607 14.099 48.3693 14.0263 48.878C13.9537 49.3867 13.9173 49.641 13.9173 49.641C13.772 49.5683 13.663 49.75 13.5903 50.186C13.5177 50.5493 13.3723 50.9853 13.1543 51.494C12.791 51.7847 12.573 52.257 12.5003 52.911C12.4277 53.4923 12.3913 54.0737 12.3913 54.655C11.8827 55.963 11.4103 57.5617 10.9743 59.451C10.5383 61.2677 10.2113 63.048 9.99332 64.792C9.84799 66.4633 9.81166 67.7713 9.88432 68.716C10.0297 69.9513 10.3567 71.005 10.8653 71.877C11.4467 72.6763 12.246 73.3303 13.2633 73.839C14.0627 74.2023 14.7893 74.5293 15.4433 74.82C16.0973 75.038 16.6787 75.147 17.1873 75.147C17.7687 75.2197 18.4953 75.2197 19.3673 75.147C20.312 75.0017 21.5837 74.7837 23.1823 74.493H23.0733C24.018 74.3477 24.999 74.166 26.0163 73.948C27.1063 73.6573 28.1237 73.403 29.0683 73.185C29.9403 73.0397 30.776 72.8943 31.5753 72.749C32.3747 72.531 32.9923 72.3493 33.4283 72.204C35.027 71.768 36.2987 71.4047 37.2433 71.114C38.2607 70.8233 38.951 70.8233 39.3143 71.114C39.6777 71.4047 40.0773 71.9497 40.5133 72.749C40.9493 73.5483 41.0583 74.275 40.8403 74.929C40.695 75.2923 39.9683 76.019 38.6603 77.109C37.3523 78.2717 35.8627 79.398 34.1913 80.488C32.52 81.6507 30.994 82.45 29.6133 82.886C28.16 83.54 26.198 83.976 23.7273 84.194C21.3293 84.4847 19.004 84.5573 16.7513 84.412C14.4987 84.2667 12.791 84.0123 11.6283 83.649ZM63.4146 81.251C61.1619 81.1057 58.9092 80.27 56.6566 78.744C54.4039 77.2907 52.3329 75.91 50.4436 74.602C49.2082 73.3667 48.2636 72.0587 47.6096 70.678C46.9556 69.2247 46.4106 67.3353 45.9746 65.01C45.6839 63.6293 45.6839 61.8127 45.9746 59.56C46.2652 57.3073 46.7376 55.0547 47.3916 52.802C48.0456 50.4767 48.6632 48.66 49.2446 47.352C50.1166 45.3173 51.2066 43.1373 52.5146 40.812C53.8952 38.414 55.2396 36.1613 56.5476 34.054C57.9282 31.874 59.0182 30.13 59.8176 28.822C60.3262 28.3133 60.5442 28.059 60.4716 28.059C60.4716 27.9863 60.4716 27.95 60.4716 27.95C60.4716 27.5867 60.8349 26.6783 61.5616 25.225C62.3609 23.699 63.0512 22.3547 63.6326 21.192C64.7226 20.0293 65.3402 19.0847 65.4856 18.358C65.6309 17.6313 65.5219 17.05 65.1586 16.614C65.0132 16.3233 65.3039 15.7057 66.0306 14.761C66.8299 13.8163 67.9199 12.7627 69.3006 11.6C70.6812 10.3647 72.2072 9.27466 73.8786 8.32999C75.6226 6.94933 77.2939 6.22266 78.8926 6.15C80.5639 6.00466 81.5449 6.33166 81.8356 7.131C81.8356 7.349 82.2352 7.42166 83.0346 7.34899C83.9066 7.20366 84.8876 7.022 85.9776 6.80399C87.1402 6.51333 88.1576 6.29533 89.0296 6.15C89.3929 5.714 90.2286 5.387 91.5366 5.169C92.9172 4.87833 94.5159 4.624 96.3326 4.406C97.2772 4.47866 98.3309 4.515 99.4936 4.515C100.656 4.44233 101.674 4.36966 102.546 4.29699C103.49 4.22433 103.963 4.188 103.963 4.188C104.471 4.04266 105.198 4.36966 106.143 5.169C107.16 5.89566 107.959 6.91299 108.541 8.221C109.049 9.529 108.613 10.6553 107.233 11.6C105.852 12.5447 103.672 13.1987 100.693 13.562C98.5126 13.8527 96.8049 14.107 95.5696 14.325C94.4069 14.4703 93.1352 14.6883 91.7546 14.979C90.4466 15.197 88.5209 15.5967 85.9776 16.178C84.1609 16.5413 82.6349 16.832 81.3996 17.05C80.1642 17.268 79.0742 17.704 78.1296 18.358C77.2576 19.012 76.2766 20.1747 75.1866 21.846C74.6779 22.2093 74.0239 23.154 73.2246 24.68C72.4252 26.206 71.6259 27.732 70.8266 29.258C68.7919 32.092 67.2659 34.1993 66.2486 35.58C65.3039 36.888 64.9769 37.7237 65.2676 38.087C65.2676 38.087 65.7762 38.196 66.7936 38.414C67.8109 38.632 68.4649 38.741 68.7556 38.741C69.4822 38.3777 70.3542 38.1233 71.3716 37.978C72.4616 37.8327 73.3336 37.6873 73.9876 37.542C78.4929 36.3793 81.7992 35.5437 83.9066 35.035C86.0866 34.4537 87.6126 34.054 88.4846 33.836C89.4292 33.618 90.2649 33.4727 90.9916 33.4C92.0089 32.6007 93.0262 32.6733 94.0436 33.618C95.1336 34.49 95.8966 35.5437 96.3326 36.779C96.8412 38.2323 96.8412 39.3587 96.3326 40.158C95.8239 40.9573 94.6976 41.6113 92.9536 42.12C91.2822 42.6287 88.8842 43.2463 85.7596 43.973C82.6349 44.627 78.7109 45.608 73.9876 46.916C69.9909 48.0787 66.7572 48.769 64.2866 48.987C61.8159 49.205 60.6532 48.5873 60.7986 47.134C60.2899 46.8433 59.7086 47.134 59.0546 48.006C58.4732 48.8053 57.9282 49.9317 57.4196 51.385C56.9109 52.8383 56.4386 54.4007 56.0026 56.072C55.6392 57.7433 55.4212 59.3057 55.3486 60.759C55.2759 62.2123 55.3849 63.3387 55.6756 64.138C56.2569 65.8093 57.1652 67.2627 58.4006 68.498C59.7086 69.6607 61.5979 70.6053 64.0686 71.332C65.5219 71.4047 66.9389 71.5137 68.3196 71.659C69.7002 71.8043 71.2626 71.5137 73.0066 70.787C77.2939 70.0603 80.2732 69.2973 81.9446 68.498C83.6159 67.6987 84.6332 67.1537 84.9966 66.863C85.5779 66.5723 85.9412 66.2817 86.0866 65.991C86.3046 65.7003 86.5952 65.555 86.9586 65.555C86.7406 65.9183 86.8132 65.9183 87.1766 65.555C87.5399 65.1917 88.1212 64.683 88.9206 64.029C90.4466 62.721 91.9726 61.9217 93.4986 61.631C95.0246 61.3403 96.2962 61.3403 97.3136 61.631C98.3309 61.849 98.8759 62.1397 98.9486 62.503C99.3846 63.2297 99.1666 64.3923 98.2946 65.991C97.4226 67.517 96.0782 69.152 94.2616 70.896C92.5176 72.64 90.4466 74.2023 88.0486 75.583C84.1972 77.6177 80.0189 79.0347 75.5136 79.834C71.0082 80.706 66.9752 81.1783 63.4146 81.251ZM122.605 77.981C118.826 76.6003 115.883 73.8753 113.776 69.806C111.669 65.664 111.087 60.8317 112.032 55.309C112.177 53.2017 112.504 51.3123 113.013 49.641C113.594 47.9697 114.03 46.2983 114.321 44.627C114.321 44.4817 114.394 44.2637 114.539 43.973C114.684 43.6097 114.721 43.2827 114.648 42.992C114.793 42.556 115.12 41.7567 115.629 40.594C116.138 39.3587 116.646 38.196 117.155 37.106C117.664 35.9433 117.991 35.2893 118.136 35.144C118.499 34.9987 118.681 34.817 118.681 34.599C118.681 34.3083 118.681 34.163 118.681 34.163C118.681 33.5817 119.081 32.528 119.88 31.002C120.679 29.476 121.697 27.8047 122.932 25.988C124.24 24.0987 125.548 22.282 126.856 20.538C128.164 18.794 129.327 17.3407 130.344 16.178C131.361 15.0153 132.015 14.434 132.306 14.434C132.524 14.434 132.706 14.2887 132.851 13.998C132.996 13.7073 133.142 13.5257 133.287 13.453C133.505 13.1623 134.159 12.7263 135.249 12.145C136.412 11.5637 137.756 10.946 139.282 10.292C140.881 9.56533 142.443 8.91133 143.969 8.32999C145.495 7.74866 146.803 7.349 147.893 7.131C151.09 5.96833 153.961 5.96833 156.504 7.131C159.047 8.29367 161.082 10.4737 162.608 13.671C164.134 16.8683 164.933 20.9377 165.006 25.879C164.715 27.4777 164.534 29.0037 164.461 30.457C164.461 31.8377 164.352 32.855 164.134 33.509C164.061 35.1077 163.807 36.9243 163.371 38.959C162.935 40.9937 162.499 42.774 162.063 44.3C161.627 45.7533 161.3 46.5163 161.082 46.589C161.082 46.8797 161.009 47.1703 160.864 47.461C160.719 47.679 160.646 47.897 160.646 48.115C160.719 48.4783 160.464 49.314 159.883 50.622C159.302 51.93 158.611 53.3833 157.812 54.982C157.013 56.5807 156.286 57.9613 155.632 59.124C154.978 60.2867 154.578 60.868 154.433 60.868C154.433 60.868 154.36 60.9043 154.215 60.977C154.07 60.977 154.033 61.1223 154.106 61.413C154.179 61.5583 153.924 61.9217 153.343 62.503C152.762 63.0843 152.108 63.6657 151.381 64.247C150.727 64.7557 150.218 65.01 149.855 65.01C149.855 65.01 149.782 65.0463 149.637 65.119C149.564 65.1917 149.637 65.337 149.855 65.555C149.928 65.7003 149.346 66.2817 148.111 67.299C146.948 68.2437 145.459 69.37 143.642 70.678C141.825 71.9133 140.009 73.076 138.192 74.166C136.375 75.1833 134.922 75.801 133.832 76.019C133.614 76.3097 133.396 76.4913 133.178 76.564C132.96 76.564 132.669 76.6003 132.306 76.673C131.797 77.1817 130.889 77.5813 129.581 77.872C128.346 78.2353 127.074 78.417 125.766 78.417C124.458 78.4897 123.404 78.3443 122.605 77.981ZM133.614 66.536C135.067 66.0273 136.521 65.337 137.974 64.465C139.5 63.5203 140.808 62.5393 141.898 61.522C143.061 60.432 143.787 59.4147 144.078 58.47C144.296 57.6707 144.514 57.0893 144.732 56.726C145.023 56.29 145.313 55.963 145.604 55.745C146.185 55.1637 146.912 54.0737 147.784 52.475C148.729 50.8763 149.637 49.1323 150.509 47.243C151.381 45.3537 152.108 43.5733 152.689 41.902C153.343 40.158 153.706 38.8863 153.779 38.087C153.779 37.9417 153.888 37.324 154.106 36.234C154.324 35.144 154.578 34.3447 154.869 33.836C155.014 33.5453 155.051 33.291 154.978 33.073C154.978 32.7823 154.942 32.0193 154.869 30.784C154.869 29.5487 154.905 27.3323 154.978 24.135C154.905 21.519 154.651 19.5933 154.215 18.358C153.852 17.05 153.379 16.2507 152.798 15.96C152.653 15.8147 152.289 15.6693 151.708 15.524C151.199 15.3787 150.654 15.306 150.073 15.306C149.492 15.2333 148.947 15.306 148.438 15.524C148.075 15.5967 147.566 15.7783 146.912 16.069C146.331 16.287 145.822 16.396 145.386 16.396C144.805 16.6867 144.405 17.05 144.187 17.486C143.969 17.8493 143.86 18.14 143.86 18.358C143.86 18.9393 143.606 19.4843 143.097 19.993C142.588 20.429 142.007 20.4653 141.353 20.102C140.19 20.1747 139.391 20.32 138.955 20.538C138.592 20.756 138.228 21.2283 137.865 21.955C137.574 22.609 136.957 23.7353 136.012 25.334C133.977 26.9327 132.524 28.495 131.652 30.021C130.78 31.547 130.271 32.7097 130.126 33.509C128.6 36.2703 127.474 38.414 126.747 39.94C126.02 41.3933 125.512 42.7013 125.221 43.864C124.93 45.0267 124.712 46.4437 124.567 48.115C123.913 49.3503 123.441 50.6583 123.15 52.039C122.859 53.4197 122.605 54.328 122.387 54.764C122.242 55.1273 122.169 55.8177 122.169 56.835C122.169 57.7797 122.205 58.8697 122.278 60.105C122.423 61.2677 122.569 62.3577 122.714 63.375C122.932 64.3197 123.15 65.01 123.368 65.446C123.804 67.1173 124.858 68.062 126.529 68.28C128.2 68.498 130.562 67.9167 133.614 66.536ZM172.062 80.488C171.699 81.0693 171.336 81.578 170.972 82.014C170.682 82.45 170.355 82.7043 169.991 82.777C169.773 82.4137 169.192 81.905 168.247 81.251C167.303 80.597 166.394 79.9067 165.522 79.18C164.65 78.4533 164.142 77.7993 163.996 77.218C163.996 76.4187 164.287 74.8927 164.868 72.64C165.45 70.3873 166.213 67.844 167.157 65.01C168.102 62.1033 169.047 59.2693 169.991 56.508C171.009 53.674 171.881 51.3123 172.607 49.423C173.116 48.115 173.552 46.9887 173.915 46.044C174.279 45.0267 174.569 44.2273 174.787 43.646C175.078 42.8467 175.587 41.684 176.313 40.158C177.04 38.632 177.803 37.0697 178.602 35.471C179.474 33.8723 180.201 32.4917 180.782 31.329C181.364 30.1663 181.654 29.585 181.654 29.585C181.727 29.0037 182.127 27.9137 182.853 26.315C183.58 24.7163 184.488 22.8633 185.578 20.756C186.668 18.6487 187.795 16.5777 188.957 14.543C190.12 12.4357 191.174 10.5827 192.118 8.984C192.99 7.676 193.644 6.94933 194.08 6.80399C194.589 6.586 195.025 6.62233 195.388 6.913C196.987 6.76766 198.368 6.804 199.53 7.022C200.766 7.16733 201.71 7.458 202.364 7.894C203.091 8.25733 203.491 8.69333 203.563 9.202C203.709 9.42 203.709 10.3647 203.563 12.036C203.491 13.6347 203.345 15.0517 203.127 16.287C202.691 19.8477 202.473 23.154 202.473 26.206C202.473 29.1853 202.655 32.4917 203.018 36.125C203.454 39.6857 203.927 44.1183 204.435 49.423L206.07 59.996L208.032 55.745C208.759 54.1463 209.413 52.5477 209.994 50.949C210.576 49.2777 211.157 47.8607 211.738 46.698C212.32 45.0267 212.937 43.428 213.591 41.902C214.318 40.3033 214.681 39.504 214.681 39.504C215.335 38.5593 215.953 37.2877 216.534 35.689C217.188 34.0903 217.77 32.4917 218.278 30.893C218.86 29.2943 219.296 28.0953 219.586 27.296C219.732 26.7873 219.95 26.0243 220.24 25.007C220.604 23.9897 220.967 22.8633 221.33 21.628C221.766 20.3927 222.166 19.1937 222.529 18.031C222.965 16.5777 223.365 15.2697 223.728 14.107C224.092 12.9443 224.419 11.9633 224.709 11.164C225 10.292 225.182 9.71066 225.254 9.42C225.254 9.42 225.4 9.23833 225.69 8.875C225.981 8.51166 226.308 7.93033 226.671 7.131L230.595 6.25899C232.267 7.63966 233.211 8.94766 233.429 10.183C233.72 11.3457 233.502 12.8717 232.775 14.761C232.703 15.4877 232.521 16.287 232.23 17.159C231.94 17.9583 231.794 18.358 231.794 18.358C232.23 18.358 232.267 18.8667 231.903 19.884C231.613 20.8287 231.395 21.6643 231.249 22.391C231.104 22.8997 230.85 23.7717 230.486 25.007C230.196 26.2423 229.869 27.5503 229.505 28.931C229.142 30.3117 228.815 31.5107 228.524 32.528C228.379 33.1093 227.979 34.1993 227.325 35.798C226.671 37.324 225.908 39.068 225.036 41.03C224.164 42.992 223.256 44.9903 222.311 47.025C221.439 48.987 220.64 50.6947 219.913 52.148C219.187 53.6013 218.678 54.5823 218.387 55.091C218.169 55.527 217.915 56.072 217.624 56.726C217.406 57.38 217.116 57.8887 216.752 58.252C216.389 59.4147 215.735 60.7227 214.79 62.176C213.846 63.6293 212.828 65.0463 211.738 66.427C210.721 67.8077 209.813 68.9703 209.013 69.915C208.069 70.9323 207.124 71.6953 206.179 72.204C205.235 72.7127 204.145 72.6763 202.909 72.095C201.747 71.5137 200.293 70.2057 198.549 68.171C198.186 67.5897 197.786 66.318 197.35 64.356C196.914 62.394 196.442 60.1413 195.933 57.598C195.497 54.982 195.061 52.4023 194.625 49.859C194.189 47.243 193.862 45.0267 193.644 43.21C193.354 41.7567 193.245 40.6303 193.317 39.831C193.39 38.959 193.426 38.0507 193.426 37.106C193.426 35.9433 193.426 35.0713 193.426 34.49C193.499 33.836 193.572 33.2183 193.644 32.637C193.717 31.983 193.753 31.1473 193.753 30.13C193.826 29.3307 193.79 28.8583 193.644 28.713C193.499 28.495 193.208 28.6767 192.772 29.258C191.537 31.0747 190.483 32.746 189.611 34.272C188.739 35.798 188.085 37.0333 187.649 37.978C187.359 38.7773 186.814 40.1217 186.014 42.011C185.215 43.8277 184.343 45.8623 183.398 48.115C182.454 50.3677 181.545 52.475 180.673 54.437C179.874 56.399 179.256 57.8887 178.82 58.906C178.312 59.996 177.767 61.4857 177.185 63.375C176.677 65.1917 176.168 67.1173 175.659 69.152C175.151 71.114 174.715 72.858 174.351 74.384C174.061 75.91 173.843 76.891 173.697 77.327C173.625 77.3997 173.37 77.8357 172.934 78.635C172.571 79.4343 172.28 80.052 172.062 80.488Z" fill="url(#paint0_linear_124_9)"/>
<defs>
<linearGradient id="paint0_linear_124_9" x1="82" y1="-18.5" x2="82" y2="118.5" gradientUnits="userSpaceOnUse">
<stop stop-color="white"/>
<stop offset="1" stop-color="#99E23C"/>
</linearGradient>
</defs>
</svg>
