<svg width="29" height="52" viewBox="0 0 29 52" fill="none" xmlns="http://www.w3.org/2000/svg">
<g clip-path="url(#clip0_218_2)">
<path d="M28.0445 0.0063408C27.0555 1.57666 26.073 3.15211 25.0788 4.71731C22.3434 8.99792 19.6063 13.2768 16.8675 17.554C16.7811 17.6898 16.6405 17.8102 16.656 18.0407H29L0.211509 52.0012C0.122536 51.7105 0.25793 51.5619 0.324982 51.4044C3.67758 43.4912 7.03018 35.5781 10.3828 27.665C10.6304 27.081 10.6291 27.0797 9.99595 27.0797H0.0039055C-0.0244627 26.8466 0.118668 26.6878 0.203773 26.5174C4.56559 17.846 8.92999 9.17638 13.297 0.508434C13.3808 0.340643 13.4556 0.169009 13.5342 -0.00390625L28.0445 0.0063408Z" fill="url(#paint0_linear_218_2)"/>
</g>
<defs>
<linearGradient id="paint0_linear_218_2" x1="14.5001" y1="-0.00390625" x2="14.5001" y2="52.0012" gradientUnits="userSpaceOnUse">
<stop stop-color="#D9A02D"/>
<stop offset="1" stop-color="#A1751F"/>
</linearGradient>
<clipPath id="clip0_218_2">
<rect width="29" height="52" fill="white"/>
</clipPath>
</defs>
</svg>
